<svg width="177" height="40" viewBox="0 0 177 40" fill="none" xmlns="http://www.w3.org/2000/svg">
<path d="M148.613 10.74C148.453 10.34 148.448 9.99997 148.598 9.71997C148.758 9.42997 149.103 9.28497 149.633 9.28497H153.338C153.588 9.28497 153.793 9.36497 153.953 9.52497C154.113 9.67497 154.233 9.86497 154.313 10.095L158.558 22.17L162.713 10.095C162.823 9.77497 162.963 9.55997 163.133 9.44997C163.303 9.33997 163.538 9.28497 163.838 9.28497H167.693C167.973 9.28497 168.193 9.32497 168.353 9.40497C168.513 9.47497 168.623 9.57497 168.683 9.70497C168.753 9.82497 168.778 9.96497 168.758 10.125C168.738 10.275 168.698 10.425 168.638 10.575C168.258 11.515 167.843 12.545 167.393 13.665C166.943 14.775 166.473 15.935 165.983 17.145C165.503 18.345 165.013 19.57 164.513 20.82C164.013 22.06 163.523 23.28 163.043 24.48C162.573 25.68 162.118 26.835 161.678 27.945C161.238 29.045 160.833 30.055 160.463 30.975C160.103 31.905 159.788 32.72 159.518 33.42C159.248 34.12 159.043 34.66 158.903 35.04L158.948 34.965C158.878 35.235 158.753 35.45 158.573 35.61C158.393 35.78 158.173 35.865 157.913 35.865H154.448C153.998 35.865 153.688 35.775 153.518 35.595C153.358 35.425 153.278 35.17 153.278 34.83C153.278 34.7 153.293 34.6 153.323 34.53C153.363 34.46 153.393 34.415 153.413 34.395L155.768 28.275L148.613 10.74Z" fill="white"/>
<path d="M132.512 10.41C132.512 10.22 132.547 10.055 132.617 9.915C132.687 9.775 132.777 9.66 132.887 9.57C133.007 9.48 133.137 9.415 133.277 9.375C133.427 9.325 133.572 9.3 133.712 9.3H135.977C136.227 9.3 136.427 9.375 136.577 9.525C136.727 9.675 136.852 9.865 136.952 10.095C137.062 10.325 137.157 10.58 137.237 10.86C137.317 11.14 137.412 11.41 137.522 11.67C137.822 11.34 138.117 11.015 138.407 10.695C138.707 10.375 139.027 10.09 139.367 9.84C139.707 9.59 140.077 9.39 140.477 9.24C140.887 9.08 141.352 9 141.872 9C142.412 9 142.892 9.04 143.312 9.12C143.742 9.2 144.147 9.32 144.527 9.48C144.907 9.63 145.282 9.825 145.652 10.065C146.032 10.305 146.442 10.585 146.882 10.905C147.312 11.155 147.527 11.45 147.527 11.79C147.527 12.01 147.442 12.265 147.272 12.555L145.907 14.88C145.637 15.27 145.302 15.465 144.902 15.465C144.702 15.465 144.477 15.41 144.227 15.3C143.797 14.88 143.357 14.57 142.907 14.37C142.467 14.16 141.962 14.055 141.392 14.055C141.002 14.055 140.657 14.11 140.357 14.22C140.067 14.33 139.802 14.485 139.562 14.685C139.322 14.885 139.097 15.125 138.887 15.405C138.677 15.685 138.467 15.995 138.257 16.335V27.195C138.257 27.575 138.162 27.865 137.972 28.065C137.792 28.255 137.487 28.35 137.057 28.35H133.682C132.902 28.35 132.512 27.965 132.512 27.195V10.41Z" fill="white"/>
<path d="M109.837 18.84C109.837 17.92 109.952 17.035 110.182 16.185C110.422 15.335 110.752 14.55 111.172 13.83C111.602 13.1 112.112 12.44 112.702 11.85C113.302 11.25 113.967 10.74 114.697 10.32C115.427 9.9 116.212 9.575 117.052 9.345C117.902 9.115 118.787 9 119.707 9C121.067 9 122.342 9.255 123.532 9.765C124.732 10.265 125.772 10.96 126.652 11.85C127.542 12.73 128.242 13.77 128.752 14.97C129.272 16.16 129.532 17.45 129.532 18.84C129.532 19.76 129.412 20.645 129.172 21.495C128.942 22.335 128.612 23.12 128.182 23.85C127.762 24.58 127.252 25.245 126.652 25.845C126.062 26.435 125.402 26.945 124.672 27.375C123.942 27.795 123.157 28.12 122.317 28.35C121.487 28.58 120.617 28.695 119.707 28.695C118.787 28.695 117.902 28.58 117.052 28.35C116.212 28.12 115.427 27.795 114.697 27.375C113.967 26.945 113.302 26.435 112.702 25.845C112.112 25.245 111.602 24.58 111.172 23.85C110.752 23.12 110.422 22.335 110.182 21.495C109.952 20.645 109.837 19.76 109.837 18.84ZM115.312 18.84C115.312 19.5 115.412 20.12 115.612 20.7C115.822 21.27 116.112 21.765 116.482 22.185C116.862 22.605 117.317 22.94 117.847 23.19C118.387 23.43 118.992 23.55 119.662 23.55C120.312 23.55 120.897 23.43 121.417 23.19C121.947 22.94 122.392 22.605 122.752 22.185C123.122 21.765 123.402 21.27 123.592 20.7C123.792 20.12 123.892 19.5 123.892 18.84C123.892 18.2 123.792 17.59 123.592 17.01C123.402 16.43 123.122 15.92 122.752 15.48C122.392 15.04 121.947 14.695 121.417 14.445C120.897 14.185 120.312 14.055 119.662 14.055C118.992 14.055 118.387 14.185 117.847 14.445C117.317 14.695 116.862 15.04 116.482 15.48C116.112 15.92 115.822 16.43 115.612 17.01C115.412 17.59 115.312 18.2 115.312 18.84Z" fill="white"/>
<path d="M78.849 9.555C78.979 9.445 79.114 9.375 79.254 9.345C79.404 9.315 79.544 9.3 79.674 9.3H81.939C82.119 9.3 82.274 9.335 82.404 9.405C82.534 9.465 82.644 9.55 82.734 9.66C82.824 9.77 82.894 9.895 82.944 10.035C83.004 10.175 83.059 10.32 83.109 10.47L83.424 11.79C83.574 11.48 83.789 11.16 84.069 10.83C84.349 10.5 84.704 10.2 85.134 9.93C85.564 9.66 86.074 9.44 86.664 9.27C87.264 9.09 87.964 9 88.764 9C89.394 9 89.964 9.065 90.474 9.195C90.994 9.315 91.464 9.5 91.884 9.75C92.314 9.99 92.704 10.29 93.054 10.65C93.404 11 93.734 11.405 94.044 11.865C94.234 11.555 94.514 11.23 94.884 10.89C95.264 10.55 95.714 10.24 96.234 9.96C96.754 9.68 97.334 9.45 97.974 9.27C98.614 9.09 99.294 9 100.014 9C101.154 9 102.149 9.22 102.999 9.66C103.849 10.1 104.554 10.7 105.114 11.46C105.684 12.22 106.109 13.11 106.389 14.13C106.669 15.14 106.809 16.22 106.809 17.37V27.195C106.809 27.575 106.724 27.865 106.554 28.065C106.394 28.255 106.134 28.35 105.774 28.35H102.309C101.879 28.35 101.584 28.28 101.424 28.14C101.264 27.99 101.184 27.705 101.184 27.285V17.37C101.184 16.94 101.114 16.54 100.974 16.17C100.844 15.8 100.659 15.48 100.419 15.21C100.179 14.93 99.884 14.715 99.534 14.565C99.194 14.405 98.814 14.325 98.394 14.325C98.014 14.325 97.654 14.4 97.314 14.55C96.974 14.7 96.674 14.91 96.414 15.18C96.154 15.44 95.944 15.76 95.784 16.14C95.634 16.51 95.559 16.92 95.559 17.37V27.195C95.559 27.575 95.474 27.865 95.304 28.065C95.144 28.255 94.884 28.35 94.524 28.35H94.209H94.089H91.059C90.629 28.35 90.334 28.28 90.174 28.14C90.014 27.99 89.934 27.705 89.934 27.285V17.37C89.934 16.94 89.869 16.54 89.739 16.17C89.619 15.8 89.439 15.48 89.199 15.21C88.969 14.93 88.684 14.715 88.344 14.565C88.014 14.405 87.639 14.325 87.219 14.325C86.859 14.325 86.504 14.4 86.154 14.55C85.814 14.69 85.504 14.895 85.224 15.165C84.954 15.425 84.724 15.74 84.534 16.11C84.354 16.48 84.249 16.89 84.219 17.34V27.24C84.219 27.41 84.184 27.58 84.114 27.75C84.054 27.92 83.959 28.05 83.829 28.14C83.699 28.22 83.574 28.275 83.454 28.305C83.344 28.335 83.214 28.35 83.064 28.35H79.674C79.244 28.35 78.934 28.245 78.744 28.035C78.554 27.825 78.459 27.545 78.459 27.195V10.41C78.459 10.22 78.499 10.045 78.579 9.885C78.669 9.725 78.789 9.6 78.939 9.51L78.849 9.555Z" fill="white"/>
<path d="M61.2031 10.41C61.2031 10.22 61.2381 10.055 61.3081 9.915C61.3781 9.775 61.4681 9.66 61.5781 9.57C61.6981 9.48 61.8281 9.415 61.9681 9.375C62.1181 9.325 62.2631 9.3 62.4031 9.3H64.6681C64.9181 9.3 65.1181 9.375 65.2681 9.525C65.4181 9.675 65.5431 9.865 65.6431 10.095C65.7531 10.325 65.8481 10.58 65.9281 10.86C66.0081 11.14 66.1031 11.41 66.2131 11.67C66.5131 11.34 66.8081 11.015 67.0981 10.695C67.3981 10.375 67.7181 10.09 68.0581 9.84C68.3981 9.59 68.7681 9.39 69.1681 9.24C69.5781 9.08 70.0431 9 70.5631 9C71.1031 9 71.5831 9.04 72.0031 9.12C72.4331 9.2 72.8381 9.32 73.2181 9.48C73.5981 9.63 73.9731 9.825 74.3431 10.065C74.7231 10.305 75.1331 10.585 75.5731 10.905C76.0031 11.155 76.2181 11.45 76.2181 11.79C76.2181 12.01 76.1331 12.265 75.9631 12.555L74.5981 14.88C74.3281 15.27 73.9931 15.465 73.5931 15.465C73.3931 15.465 73.1681 15.41 72.9181 15.3C72.4881 14.88 72.0481 14.57 71.5981 14.37C71.1581 14.16 70.6531 14.055 70.0831 14.055C69.6931 14.055 69.3481 14.11 69.0481 14.22C68.7581 14.33 68.4931 14.485 68.2531 14.685C68.0131 14.885 67.7881 15.125 67.5781 15.405C67.3681 15.685 67.1581 15.995 66.9481 16.335V27.195C66.9481 27.575 66.8531 27.865 66.6631 28.065C66.4831 28.255 66.1781 28.35 65.7481 28.35H62.3731C61.5931 28.35 61.2031 27.965 61.2031 27.195V10.41Z" fill="white"/>
<path d="M55.9229 26.07C55.0429 26.88 54.0529 27.515 52.9529 27.975C51.8529 28.425 50.6879 28.65 49.4579 28.65C48.0879 28.65 46.7929 28.4 45.5729 27.9C44.3529 27.4 43.2829 26.71 42.3629 25.83C41.4429 24.94 40.7129 23.895 40.1729 22.695C39.6329 21.495 39.3629 20.19 39.3629 18.78C39.3629 17.9 39.4679 17.05 39.6779 16.23C39.8979 15.4 40.2029 14.625 40.5929 13.905C40.9929 13.185 41.4729 12.525 42.0329 11.925C42.6029 11.315 43.2379 10.795 43.9379 10.365C44.6379 9.935 45.3979 9.6 46.2179 9.36C47.0379 9.12 47.9029 9 48.8129 9C49.6429 9 50.4479 9.11 51.2279 9.33C52.0079 9.55 52.7379 9.86 53.4179 10.26C54.1079 10.66 54.7379 11.14 55.3079 11.7C55.8779 12.26 56.3679 12.875 56.7779 13.545C57.1879 14.205 57.5029 14.915 57.7229 15.675C57.9529 16.425 58.0679 17.2 58.0679 18C58.0679 18.52 58.0579 18.945 58.0379 19.275C58.0279 19.605 57.9529 19.87 57.8129 20.07C57.6729 20.26 57.4379 20.395 57.1079 20.475C56.7879 20.545 56.3129 20.58 55.6829 20.58H44.8829C44.9829 21.22 45.1829 21.755 45.4829 22.185C45.7929 22.615 46.1479 22.96 46.5479 23.22C46.9479 23.47 47.3729 23.65 47.8229 23.76C48.2729 23.87 48.6979 23.925 49.0979 23.925C49.4579 23.925 49.8279 23.89 50.2079 23.82C50.5879 23.74 50.9529 23.64 51.3029 23.52C51.6629 23.39 51.9879 23.245 52.2779 23.085C52.5779 22.915 52.8179 22.74 52.9979 22.56C53.1579 22.43 53.2929 22.335 53.4029 22.275C53.5229 22.205 53.6479 22.17 53.7779 22.17C53.9079 22.17 54.0379 22.215 54.1679 22.305C54.3079 22.395 54.4629 22.525 54.6329 22.695L56.2229 24.495C56.3329 24.625 56.4029 24.745 56.4329 24.855C56.4629 24.955 56.4779 25.06 56.4779 25.17C56.4779 25.37 56.4229 25.545 56.3129 25.695C56.2029 25.835 56.0729 25.96 55.9229 26.07ZM48.7079 13.575C48.3179 13.575 47.9379 13.655 47.5679 13.815C47.2079 13.965 46.8679 14.17 46.5479 14.43C46.2279 14.69 45.9379 14.985 45.6779 15.315C45.4279 15.645 45.2229 15.98 45.0629 16.32H52.7279C52.5179 15.93 52.2879 15.57 52.0379 15.24C51.7979 14.91 51.5179 14.62 51.1979 14.37C50.8879 14.12 50.5279 13.925 50.1179 13.785C49.7179 13.645 49.2479 13.575 48.7079 13.575Z" fill="white"/>
<path d="M8.39 9.555C8.52 9.445 8.655 9.375 8.795 9.345C8.945 9.315 9.085 9.3 9.215 9.3H11.48C11.66 9.3 11.815 9.335 11.945 9.405C12.075 9.465 12.185 9.55 12.275 9.66C12.365 9.77 12.435 9.895 12.485 10.035C12.545 10.175 12.6 10.32 12.65 10.47L12.965 11.79C13.115 11.48 13.33 11.16 13.61 10.83C13.89 10.5 14.245 10.2 14.675 9.93C15.105 9.66 15.615 9.44 16.205 9.27C16.805 9.09 17.505 9 18.305 9C18.935 9 19.505 9.065 20.015 9.195C20.535 9.315 21.005 9.5 21.425 9.75C21.855 9.99 22.245 10.29 22.595 10.65C22.945 11 23.275 11.405 23.585 11.865C23.775 11.555 24.055 11.23 24.425 10.89C24.805 10.55 25.255 10.24 25.775 9.96C26.295 9.68 26.875 9.45 27.515 9.27C28.155 9.09 28.835 9 29.555 9C30.695 9 31.69 9.22 32.54 9.66C33.39 10.1 34.095 10.7 34.655 11.46C35.225 12.22 35.65 13.11 35.93 14.13C36.21 15.14 36.35 16.22 36.35 17.37V27.195C36.35 27.575 36.265 27.865 36.095 28.065C35.935 28.255 35.675 28.35 35.315 28.35H31.85C31.42 28.35 31.125 28.28 30.965 28.14C30.805 27.99 30.725 27.705 30.725 27.285V17.37C30.725 16.94 30.655 16.54 30.515 16.17C30.385 15.8 30.2 15.48 29.96 15.21C29.72 14.93 29.425 14.715 29.075 14.565C28.735 14.405 28.355 14.325 27.935 14.325C27.555 14.325 27.195 14.4 26.855 14.55C26.515 14.7 26.215 14.91 25.955 15.18C25.695 15.44 25.485 15.76 25.325 16.14C25.175 16.51 25.1 16.92 25.1 17.37V27.195C25.1 27.575 25.015 27.865 24.845 28.065C24.685 28.255 24.425 28.35 24.065 28.35H23.75H23.63H20.6C20.17 28.35 19.875 28.28 19.715 28.14C19.555 27.99 19.475 27.705 19.475 27.285V17.37C19.475 16.94 19.41 16.54 19.28 16.17C19.16 15.8 18.98 15.48 18.74 15.21C18.51 14.93 18.225 14.715 17.885 14.565C17.555 14.405 17.18 14.325 16.76 14.325C16.4 14.325 16.045 14.4 15.695 14.55C15.355 14.69 15.045 14.895 14.765 15.165C14.495 15.425 14.265 15.74 14.075 16.11C13.895 16.48 13.79 16.89 13.76 17.34V27.24C13.76 27.41 13.725 27.58 13.655 27.75C13.595 27.92 13.5 28.05 13.37 28.14C13.24 28.22 13.115 28.275 12.995 28.305C12.885 28.335 12.755 28.35 12.605 28.35H9.215C8.785 28.35 8.475 28.245 8.285 28.035C8.095 27.825 8 27.545 8 27.195V10.41C8 10.22 8.04 10.045 8.12 9.885C8.21 9.725 8.33 9.6 8.48 9.51L8.39 9.555Z" fill="white"/>
</svg>
