<svg width="204" height="239" viewBox="0 0 204 239" fill="none" xmlns="http://www.w3.org/2000/svg">
<g filter="url(#filter0_d_1_457)">
<g clip-path="url(#clip0_1_457)">
<rect x="7.12622" y="35.3392" width="256" height="195" rx="8" transform="rotate(-7 7.12622 35.3392)" fill="white"/>
<path d="M32.4371 62.5011C31.6352 62.5995 30.9021 62.5042 30.2379 62.2149C29.5737 61.9257 29.0269 61.477 28.5976 60.8688C28.1683 60.2606 27.9019 59.5357 27.7986 58.694C27.7206 58.0587 27.7487 57.4669 27.8828 56.9185C28.016 56.3621 28.2379 55.8714 28.5484 55.4464C28.8669 55.0204 29.2635 54.6735 29.7384 54.4056C30.2124 54.1298 30.7471 53.9553 31.3426 53.8822C32.1446 53.7837 32.8742 53.8836 33.5314 54.1817C34.1956 54.4709 34.7384 54.9201 35.1598 55.5293C35.5802 56.1305 35.8421 56.852 35.9454 57.6937C36.0488 58.5353 35.9697 59.3027 35.7082 59.9957C35.4467 60.6888 35.0327 61.2555 34.4661 61.6958C33.9075 62.1351 33.2312 62.4036 32.4371 62.5011ZM35.883 62.4044L32.5354 59.7566L33.1249 59.0435L36.4458 61.6703L35.883 62.4044ZM32.3245 61.5839C32.9201 61.5108 33.4266 61.3035 33.8441 60.9621C34.2606 60.6128 34.5647 60.1684 34.7564 59.629C34.956 59.0886 35.0149 58.485 34.933 57.818C34.8521 57.1589 34.6494 56.5914 34.325 56.1154C33.9996 55.6314 33.5891 55.2748 33.0934 55.0455C32.6047 54.8073 32.0587 54.7252 31.4552 54.7993C30.8597 54.8724 30.3497 55.0842 29.9252 55.4345C29.4998 55.7769 29.1877 56.2223 28.9891 56.7706C28.7894 57.3109 28.7301 57.9106 28.811 58.5697C28.8929 59.2367 29.0961 59.8082 29.4205 60.2842C29.7449 60.7602 30.1594 61.1163 30.664 61.3526C31.1675 61.5809 31.7211 61.658 32.3245 61.5839ZM41.9751 61.1849L41.781 60.0964L41.1843 55.2369L42.1372 55.1199L42.8684 61.0752L41.9751 61.1849ZM37.3781 58.7993L37.0037 55.7502L37.9566 55.6332L38.331 58.6823L37.3781 58.7993ZM38.331 58.6823C38.4031 59.2699 38.5257 59.7102 38.6987 60.0033C38.8717 60.2964 39.0846 60.4879 39.3375 60.5778C39.5973 60.6587 39.878 60.6807 40.1798 60.6436C40.6959 60.5802 41.074 60.3444 41.314 59.9361C41.562 59.5268 41.645 58.9887 41.5631 58.3217L42.0276 58.2647C42.1046 58.892 42.0796 59.4431 41.9526 59.9182C41.8255 60.3932 41.6019 60.7713 41.2818 61.0524C40.9696 61.3325 40.5634 61.5033 40.0631 61.5647C39.6026 61.6212 39.1864 61.5797 38.8146 61.4399C38.4419 61.2923 38.1353 61.0276 37.895 60.6461C37.6538 60.2566 37.4932 59.7363 37.4132 59.0852L37.3781 58.7993L38.331 58.6823ZM47.1573 60.6936C46.5776 60.7648 46.0494 60.6967 45.5726 60.4893C45.0947 60.2739 44.7 59.9476 44.3884 59.5103C44.0847 59.072 43.8954 58.5472 43.8203 57.9358C43.7452 57.3244 43.802 56.7693 43.9906 56.2706C44.1872 55.7709 44.4878 55.3632 44.8923 55.0476C45.3038 54.723 45.7954 54.5256 46.3671 54.4554C46.923 54.3872 47.4204 54.4672 47.8595 54.6954C48.2976 54.9156 48.6581 55.2582 48.9408 55.7232C49.2236 56.1882 49.4059 56.7542 49.4878 57.4212L44.5688 58.0252L44.7821 57.7935C44.8406 58.2699 44.9742 58.6686 45.1829 58.9896C45.3995 59.3096 45.6739 59.5418 46.0059 59.6865C46.3371 59.8231 46.7011 59.8671 47.0982 59.8183C47.519 59.7667 47.8602 59.624 48.1216 59.3904C48.3911 59.1558 48.5852 58.866 48.704 58.521L49.577 58.8369C49.4642 59.1651 49.2949 59.4599 49.069 59.7214C48.8512 59.9819 48.5793 60.1966 48.2535 60.3656C47.9356 60.5336 47.5702 60.643 47.1573 60.6936ZM44.792 57.3812L44.5184 57.2214L48.6276 56.7168L48.4023 56.95C48.3555 56.5689 48.2396 56.2486 48.0546 55.9892C47.8697 55.7298 47.6408 55.5403 47.3682 55.4206C47.0956 55.301 46.7926 55.2616 46.4591 55.3026C46.1335 55.3425 45.8331 55.456 45.5578 55.6429C45.2905 55.8289 45.0826 56.072 44.9341 56.3724C44.7925 56.6638 44.7452 57.0001 44.792 57.3812ZM53.1352 59.9597C52.6984 60.0133 52.3095 59.9966 51.9684 59.9095C51.6262 59.8145 51.3308 59.6734 51.0822 59.4863C50.8415 59.2983 50.6579 59.083 50.5314 58.8406L51.3227 58.3929C51.4908 58.6463 51.7201 58.8398 52.0106 58.9734C52.301 59.107 52.609 59.1538 52.9346 59.1138C53.3078 59.068 53.6127 58.958 53.8492 58.7839C54.0848 58.6018 54.186 58.3758 54.1528 58.1058C54.1226 57.8597 54.0029 57.6729 53.7938 57.5454C53.5927 57.4169 53.3036 57.3275 52.9267 57.2771L52.336 57.1924C51.7785 57.1158 51.3313 56.9531 50.9945 56.7043C50.6567 56.4475 50.4653 56.1365 50.4205 55.7713C50.3513 55.2075 50.4803 54.7484 50.8075 54.3938C51.1417 54.0304 51.6741 53.8038 52.4046 53.7141C52.754 53.6712 53.0779 53.6839 53.3764 53.752C53.675 53.8201 53.9392 53.9368 54.169 54.102C54.3979 54.2593 54.5756 54.4591 54.702 54.7015L53.9136 55.1731C53.7773 54.9158 53.5827 54.7422 53.3298 54.6524C53.077 54.5625 52.7799 54.5386 52.4384 54.5805C52.0732 54.6253 51.7971 54.7398 51.6101 54.924C51.4222 55.1002 51.3453 55.3273 51.3794 55.6052C51.3989 55.764 51.5008 55.9046 51.6851 56.0271C51.8764 56.1406 52.1441 56.2206 52.4883 56.267L53.1029 56.3487C53.5036 56.3962 53.8467 56.4991 54.1322 56.6575C54.4166 56.808 54.641 56.994 54.8052 57.2157C54.9694 57.4373 55.0681 57.6831 55.1013 57.9531C55.1452 58.3104 55.0879 58.6318 54.9295 58.9172C54.7711 59.2026 54.5379 59.4368 54.2299 59.6197C53.9209 59.7947 53.556 59.908 53.1352 59.9597ZM58.8382 59.2594C58.2585 59.3306 57.7914 59.2348 57.4367 58.9721C57.0821 58.7093 56.8711 58.304 56.8038 57.7561L56.039 51.5269L56.9918 51.4099L57.745 57.5439C57.782 57.8456 57.8902 58.0701 58.0695 58.2173C58.2557 58.3557 58.4957 58.4068 58.7895 58.3707C58.8848 58.359 58.9746 58.3359 59.0591 58.3014C59.1505 58.2579 59.2648 58.1713 59.402 58.0416L59.8663 58.7705C59.6764 58.9308 59.501 59.045 59.3401 59.1132C59.1802 59.1892 59.0129 59.238 58.8382 59.2594ZM55.3347 54.3578L55.2309 53.5122L59.0065 53.0486L59.1104 53.8943L55.3347 54.3578ZM61.1424 58.8314L60.4111 52.8761L61.364 52.7591L62.0952 58.7144L61.1424 58.8314ZM60.7298 51.4346C60.571 51.4541 60.4248 51.4116 60.291 51.3071C60.1573 51.2026 60.0807 51.071 60.0612 50.9121C60.0407 50.7454 60.0832 50.5991 60.1887 50.4733C60.2931 50.3396 60.4248 50.263 60.5836 50.2435C60.7503 50.223 60.8966 50.2655 61.0224 50.371C61.1551 50.4675 61.2318 50.5992 61.2522 50.7659C61.2717 50.9247 61.2292 51.071 61.1248 51.2047C61.0282 51.3375 60.8966 51.4141 60.7298 51.4346ZM66.5009 58.3186C65.9212 58.3897 65.389 58.3221 64.9042 58.1156C64.4264 57.9002 64.0317 57.5739 63.7201 57.1366C63.4085 56.6994 63.2151 56.175 63.1401 55.5636C63.065 54.9522 63.1218 54.3971 63.3104 53.8984C63.507 53.3987 63.8115 52.9906 64.224 52.674C64.6434 52.3484 65.139 52.1505 65.7107 52.0804C66.2983 52.0082 66.831 52.0798 67.3088 52.2952C67.7936 52.5017 68.1878 52.824 68.4915 53.2623C68.8031 53.6996 68.9964 54.2239 69.0715 54.8353C69.1466 55.4467 69.0858 56.0023 68.8893 56.5019C68.7006 57.0006 68.4006 57.4123 67.9891 57.7369C67.5766 58.0535 67.0805 58.2474 66.5009 58.3186ZM66.3926 57.4372C66.7897 57.3884 67.1234 57.2507 67.3938 57.0241C67.6641 56.7974 67.8622 56.5071 67.988 56.1532C68.1218 55.7982 68.1614 55.3984 68.1068 54.9538C68.0522 54.5091 67.917 54.1308 67.7014 53.8187C67.4937 53.5057 67.2273 53.2724 66.9022 53.1189C66.577 52.9654 66.216 52.913 65.8189 52.9617C65.4299 53.0095 65.0962 53.1472 64.8178 53.3748C64.5474 53.6015 64.3454 53.8923 64.2116 54.2472C64.0858 54.6012 64.0502 55.0005 64.1048 55.4451C64.1584 55.8819 64.2896 56.2607 64.4983 56.5817C64.7139 56.8937 64.9843 57.1265 65.3094 57.28C65.6425 57.4326 66.0036 57.4849 66.3926 57.4372ZM70.7601 57.6505L70.0289 51.6952L70.9222 51.5855L71.1163 52.674L71.713 57.5335L70.7601 57.6505ZM74.9407 57.1372L74.5663 54.0881L75.5192 53.9711L75.8936 57.0202L74.9407 57.1372ZM74.5663 54.0881C74.4942 53.5005 74.3716 53.0602 74.1986 52.7671C74.0256 52.474 73.8132 52.2864 73.5613 52.2045C73.3085 52.1147 73.0312 52.0883 72.7295 52.1253C72.2054 52.1897 71.8194 52.4265 71.5714 52.8357C71.3304 53.2361 71.2513 53.7737 71.3342 54.4487L70.8697 54.5057C70.7927 53.8784 70.8177 53.3273 70.9447 52.8522C71.0718 52.3772 71.2954 51.9991 71.6155 51.718C71.9356 51.4369 72.3419 51.2661 72.8342 51.2057C73.3026 51.1482 73.7193 51.1937 74.0841 51.3424C74.4559 51.4821 74.762 51.7428 75.0023 52.1243C75.2505 52.5049 75.4111 53.0252 75.4841 53.6852L75.5192 53.9711L74.5663 54.0881ZM82.0952 56.2587L81.1374 48.4573L81.1549 47.9111L82.0601 47.8L83.0838 56.1373L82.0952 56.2587ZM79.4648 50.2948L79.3522 49.3777C79.5199 49.3652 79.7116 49.2852 79.9273 49.1379C80.1429 48.9905 80.3621 48.8064 80.5849 48.5856C80.8076 48.3648 80.9976 48.14 81.1549 47.9111L81.8576 48.514C81.6297 48.824 81.3865 49.1078 81.1279 49.3652C80.8694 49.6227 80.6015 49.8369 80.3243 50.008C80.0461 50.1711 79.7596 50.2667 79.4648 50.2948Z" fill="#001F2E"/>
<rect x="29.1812" y="74.4832" width="211.68" height="5.76" transform="rotate(-7 29.1812 74.4832)" fill="#E6E8EA"/>
<rect x="30.2343" y="83.059" width="192.96" height="5.76" transform="rotate(-7 30.2343 83.059)" fill="#E6E8EA"/>
<path d="M39.759 122.133C38.9571 122.232 38.224 122.136 37.5598 121.847C36.8956 121.558 36.3488 121.109 35.9195 120.501C35.4902 119.893 35.2238 119.168 35.1205 118.326C35.0425 117.691 35.0706 117.099 35.2047 116.551C35.3379 115.994 35.5598 115.504 35.8703 115.079C36.1888 114.653 36.5854 114.306 37.0603 114.038C37.5343 113.762 38.069 113.587 38.6645 113.514C39.4665 113.416 40.1961 113.516 40.8533 113.814C41.5175 114.103 42.0603 114.552 42.4817 115.161C42.9021 115.763 43.164 116.484 43.2673 117.326C43.3707 118.168 43.2916 118.935 43.0301 119.628C42.7686 120.321 42.3546 120.888 41.788 121.328C41.2294 121.767 40.5531 122.036 39.759 122.133ZM43.2049 122.037L39.8573 119.389L40.4468 118.676L43.7677 121.303L43.2049 122.037ZM39.6464 121.216C40.242 121.143 40.7485 120.936 41.166 120.594C41.5825 120.245 41.8866 119.801 42.0783 119.261C42.2779 118.721 42.3368 118.117 42.2549 117.45C42.174 116.791 41.9713 116.224 41.6469 115.748C41.3215 115.264 40.911 114.907 40.4153 114.678C39.9266 114.439 39.3806 114.357 38.7771 114.431C38.1816 114.505 37.6716 114.716 37.2471 115.067C36.8217 115.409 36.5096 115.854 36.311 116.403C36.1113 116.943 36.052 117.543 36.1329 118.202C36.2148 118.869 36.4179 119.44 36.7424 119.916C37.0668 120.392 37.4813 120.748 37.9859 120.985C38.4894 121.213 39.043 121.29 39.6464 121.216ZM49.297 120.817L49.1029 119.729L48.5062 114.869L49.4591 114.752L50.1903 120.707L49.297 120.817ZM44.7 118.431L44.3256 115.382L45.2785 115.265L45.6529 118.314L44.7 118.431ZM45.6529 118.314C45.725 118.902 45.8476 119.342 46.0206 119.636C46.1936 119.929 46.4065 120.12 46.6594 120.21C46.9192 120.291 47.1999 120.313 47.5017 120.276C48.0178 120.212 48.3959 119.977 48.6359 119.568C48.8839 119.159 48.9669 118.621 48.885 117.954L49.3495 117.897C49.4265 118.524 49.4015 119.075 49.2745 119.55C49.1474 120.025 48.9238 120.403 48.6037 120.685C48.2915 120.965 47.8853 121.135 47.385 121.197C46.9245 121.253 46.5083 121.212 46.1365 121.072C45.7638 120.924 45.4572 120.66 45.2169 120.278C44.9757 119.889 44.8151 119.368 44.7351 118.717L44.7 118.431L45.6529 118.314ZM54.4792 120.326C53.8995 120.397 53.3713 120.329 52.8945 120.121C52.4166 119.906 52.0219 119.58 51.7103 119.142C51.4066 118.704 51.2173 118.179 51.1422 117.568C51.0671 116.957 51.1239 116.401 51.3125 115.903C51.5091 115.403 51.8097 114.995 52.2142 114.68C52.6257 114.355 53.1173 114.158 53.689 114.088C54.2449 114.019 54.7423 114.099 55.1814 114.328C55.6195 114.548 55.98 114.89 56.2627 115.355C56.5455 115.82 56.7278 116.386 56.8097 117.053L51.8907 117.657L52.104 117.426C52.1625 117.902 52.2961 118.301 52.5048 118.622C52.7214 118.942 52.9958 119.174 53.3278 119.319C53.659 119.455 54.023 119.499 54.4201 119.451C54.8409 119.399 55.1821 119.256 55.4435 119.023C55.713 118.788 55.9071 118.498 56.0259 118.153L56.8989 118.469C56.7861 118.797 56.6168 119.092 56.3909 119.354C56.1731 119.614 55.9012 119.829 55.5754 119.998C55.2575 120.166 54.8921 120.275 54.4792 120.326ZM52.1139 117.013L51.8403 116.854L55.9495 116.349L55.7242 116.582C55.6774 116.201 55.5615 115.881 55.3765 115.621C55.1915 115.362 54.9627 115.172 54.6901 115.053C54.4175 114.933 54.1145 114.894 53.781 114.935C53.4554 114.975 53.155 115.088 52.8797 115.275C52.6124 115.461 52.4045 115.704 52.256 116.005C52.1144 116.296 52.0671 116.632 52.1139 117.013ZM60.4571 119.592C60.0203 119.645 59.6314 119.629 59.2903 119.542C58.9481 119.447 58.6527 119.306 58.4041 119.118C58.1634 118.93 57.9798 118.715 57.8533 118.473L58.6446 118.025C58.8127 118.278 59.042 118.472 59.3325 118.606C59.6229 118.739 59.9309 118.786 60.2565 118.746C60.6297 118.7 60.9346 118.59 61.1711 118.416C61.4067 118.234 61.5079 118.008 61.4747 117.738C61.4445 117.492 61.3248 117.305 61.1157 117.178C60.9146 117.049 60.6255 116.96 60.2486 116.909L59.6579 116.825C59.1004 116.748 58.6532 116.585 58.3164 116.336C57.9786 116.08 57.7872 115.769 57.7424 115.403C57.6732 114.84 57.8022 114.381 58.1294 114.026C58.4636 113.663 58.996 113.436 59.7265 113.346C60.0759 113.303 60.3998 113.316 60.6983 113.384C60.9969 113.452 61.2611 113.569 61.4909 113.734C61.7198 113.891 61.8975 114.091 62.0239 114.334L61.2355 114.805C61.0992 114.548 60.9046 114.374 60.6517 114.285C60.3989 114.195 60.1017 114.171 59.7603 114.213C59.3951 114.257 59.119 114.372 58.932 114.556C58.7441 114.732 58.6672 114.959 58.7013 115.237C58.7208 115.396 58.8227 115.537 59.007 115.659C59.1983 115.773 59.466 115.853 59.8102 115.899L60.4248 115.981C60.8255 116.028 61.1686 116.131 61.4541 116.29C61.7385 116.44 61.9629 116.626 62.1271 116.848C62.2913 117.069 62.39 117.315 62.4232 117.585C62.4671 117.943 62.4098 118.264 62.2514 118.549C62.093 118.835 61.8598 119.069 61.5518 119.252C61.2428 119.427 60.8779 119.54 60.4571 119.592ZM66.1601 118.892C65.5804 118.963 65.1133 118.867 64.7586 118.604C64.404 118.342 64.193 117.936 64.1257 117.388L63.3609 111.159L64.3137 111.042L65.0669 117.176C65.1039 117.478 65.2121 117.702 65.3914 117.85C65.5776 117.988 65.8176 118.039 66.1114 118.003C66.2067 117.991 66.2965 117.968 66.381 117.934C66.4724 117.89 66.5867 117.803 66.7239 117.674L67.1882 118.403C66.9983 118.563 66.8229 118.677 66.662 118.745C66.5021 118.821 66.3348 118.87 66.1601 118.892ZM62.6566 113.99L62.5528 113.144L66.3284 112.681L66.4323 113.526L62.6566 113.99ZM68.4643 118.464L67.733 112.508L68.6859 112.391L69.4171 118.347L68.4643 118.464ZM68.0517 111.067C67.8929 111.086 67.7466 111.044 67.6129 110.939C67.4792 110.835 67.4026 110.703 67.3831 110.544C67.3626 110.378 67.4051 110.231 67.5105 110.106C67.615 109.972 67.7467 109.895 67.9055 109.876C68.0722 109.855 68.2185 109.898 68.3443 110.003C68.477 110.1 68.5537 110.231 68.5741 110.398C68.5936 110.557 68.5511 110.703 68.4467 110.837C68.3501 110.97 68.2185 111.046 68.0517 111.067ZM73.8228 117.951C73.2431 118.022 72.7109 117.954 72.2261 117.748C71.7483 117.532 71.3536 117.206 71.042 116.769C70.7304 116.332 70.537 115.807 70.462 115.196C70.3869 114.584 70.4437 114.029 70.6323 113.531C70.8289 113.031 71.1334 112.623 71.5459 112.306C71.9653 111.981 72.4609 111.783 73.0326 111.713C73.6202 111.64 74.1529 111.712 74.6307 111.927C75.1155 112.134 75.5097 112.456 75.8134 112.894C76.125 113.332 76.3183 113.856 76.3934 114.467C76.4685 115.079 76.4077 115.634 76.2112 116.134C76.0225 116.633 75.7225 117.044 75.311 117.369C74.8985 117.686 74.4024 117.88 73.8228 117.951ZM73.7145 117.069C74.1116 117.021 74.4453 116.883 74.7157 116.656C74.986 116.43 75.1841 116.139 75.3099 115.785C75.4437 115.43 75.4833 115.031 75.4287 114.586C75.3741 114.141 75.2389 113.763 75.0233 113.451C74.8156 113.138 74.5492 112.905 74.2241 112.751C73.8989 112.598 73.5379 112.545 73.1408 112.594C72.7518 112.642 72.4181 112.779 72.1397 113.007C71.8693 113.234 71.6673 113.524 71.5335 113.879C71.4077 114.233 71.3721 114.633 71.4267 115.077C71.4803 115.514 71.6115 115.893 71.8202 116.214C72.0358 116.526 72.3062 116.759 72.6313 116.912C72.9644 117.065 73.3255 117.117 73.7145 117.069ZM78.082 117.283L77.3508 111.327L78.2441 111.218L78.4382 112.306L79.0349 117.166L78.082 117.283ZM82.2626 116.769L81.8882 113.72L82.8411 113.603L83.2155 116.652L82.2626 116.769ZM81.8882 113.72C81.8161 113.133 81.6935 112.692 81.5205 112.399C81.3475 112.106 81.1351 111.919 80.8832 111.837C80.6304 111.747 80.3531 111.72 80.0514 111.757C79.5273 111.822 79.1413 112.059 78.8933 112.468C78.6523 112.868 78.5732 113.406 78.6561 114.081L78.1916 114.138C78.1146 113.511 78.1396 112.959 78.2666 112.484C78.3937 112.009 78.6173 111.631 78.9374 111.35C79.2575 111.069 79.6638 110.898 80.1561 110.838C80.6245 110.78 81.0412 110.826 81.406 110.975C81.7778 111.114 82.0839 111.375 82.3242 111.756C82.5724 112.137 82.733 112.657 82.806 113.317L82.8411 113.603L81.8882 113.72ZM87.5115 116.125L87.4091 115.291C87.3769 115.029 87.3968 114.765 87.4689 114.498C87.5479 114.222 87.671 113.945 87.8383 113.667C88.0136 113.387 88.2344 113.118 88.5009 112.86L90.0686 111.35C90.2575 111.181 90.4161 110.997 90.5446 110.796C90.68 110.585 90.7792 110.376 90.8421 110.167C90.9041 109.949 90.9234 109.746 90.9 109.555C90.8659 109.277 90.7677 109.035 90.6054 108.829C90.4422 108.616 90.2292 108.457 89.9665 108.352C89.7037 108.247 89.4056 108.215 89.0721 108.256C88.7466 108.296 88.4685 108.395 88.238 108.552C88.0064 108.701 87.8239 108.889 87.6905 109.115C87.556 109.333 87.4672 109.561 87.424 109.8L86.3749 109.724C86.4263 109.355 86.5561 109 86.7642 108.66C86.9803 108.319 87.2711 108.03 87.6368 107.791C88.0025 107.553 88.4235 107.405 88.9 107.346C89.4558 107.278 89.9493 107.326 90.3806 107.491C90.8109 107.648 91.1597 107.895 91.4269 108.233C91.701 108.562 91.8663 108.957 91.9229 109.417C91.9765 109.854 91.9081 110.282 91.7177 110.7C91.5272 111.118 91.2281 111.538 90.8204 111.959L89.3407 113.398C89.0524 113.675 88.8369 113.955 88.6944 114.239C88.5598 114.521 88.4982 114.807 88.5095 115.096L92.6782 114.584L92.7878 115.477L87.5115 116.125Z" fill="#001F2E"/>
<rect x="36.5031" y="134.115" width="211.68" height="5.76" transform="rotate(-7 36.5031 134.115)" fill="#E6E8EA"/>
<rect x="37.556" y="142.691" width="134.64" height="5.76" transform="rotate(-7 37.556 142.691)" fill="#E6E8EA"/>
<path d="M47.0809 181.765C46.279 181.864 45.5459 181.768 44.8817 181.479C44.2175 181.19 43.6707 180.741 43.2414 180.133C42.8121 179.525 42.5457 178.8 42.4424 177.958C42.3644 177.323 42.3925 176.731 42.5266 176.183C42.6598 175.626 42.8817 175.136 43.1922 174.711C43.5107 174.285 43.9073 173.938 44.3822 173.67C44.8562 173.394 45.3909 173.22 45.9864 173.147C46.7884 173.048 47.518 173.148 48.1752 173.446C48.8394 173.735 49.3822 174.184 49.8036 174.794C50.224 175.395 50.4859 176.116 50.5892 176.958C50.6926 177.8 50.6135 178.567 50.352 179.26C50.0905 179.953 49.6765 180.52 49.1099 180.96C48.5513 181.399 47.875 181.668 47.0809 181.765ZM50.5268 181.669L47.1792 179.021L47.7687 178.308L51.0896 180.935L50.5268 181.669ZM46.9683 180.848C47.5639 180.775 48.0704 180.568 48.4879 180.226C48.9044 179.877 49.2085 179.433 49.4002 178.893C49.5998 178.353 49.6587 177.749 49.5768 177.082C49.4959 176.423 49.2932 175.856 48.9688 175.38C48.6434 174.896 48.2329 174.539 47.7372 174.31C47.2485 174.072 46.7025 173.99 46.099 174.064C45.5035 174.137 44.9935 174.349 44.569 174.699C44.1436 175.041 43.8315 175.487 43.6329 176.035C43.4332 176.575 43.3739 177.175 43.4548 177.834C43.5367 178.501 43.7398 179.073 44.0643 179.549C44.3887 180.025 44.8032 180.381 45.3078 180.617C45.8113 180.845 46.3649 180.922 46.9683 180.848ZM56.6189 180.449L56.4248 179.361L55.8281 174.501L56.781 174.384L57.5122 180.34L56.6189 180.449ZM52.0219 178.064L51.6475 175.015L52.6004 174.898L52.9748 177.947L52.0219 178.064ZM52.9748 177.947C53.0469 178.534 53.1695 178.975 53.3425 179.268C53.5155 179.561 53.7284 179.752 53.9813 179.842C54.2411 179.923 54.5218 179.945 54.8236 179.908C55.3397 179.845 55.7178 179.609 55.9578 179.2C56.2058 178.791 56.2888 178.253 56.2069 177.586L56.6714 177.529C56.7484 178.156 56.7234 178.707 56.5964 179.183C56.4693 179.658 56.2457 180.036 55.9256 180.317C55.6134 180.597 55.2072 180.768 54.7069 180.829C54.2464 180.886 53.8302 180.844 53.4584 180.704C53.0857 180.557 52.7791 180.292 52.5388 179.91C52.2976 179.521 52.137 179.001 52.057 178.35L52.0219 178.064L52.9748 177.947ZM61.8011 179.958C61.2214 180.029 60.6932 179.961 60.2164 179.754C59.7385 179.538 59.3438 179.212 59.0322 178.775C58.7285 178.336 58.5392 177.812 58.4641 177.2C58.389 176.589 58.4458 176.034 58.6344 175.535C58.831 175.035 59.1316 174.628 59.5361 174.312C59.9476 173.987 60.4392 173.79 61.0109 173.72C61.5668 173.652 62.0642 173.732 62.5033 173.96C62.9414 174.18 63.3019 174.523 63.5846 174.988C63.8674 175.453 64.0497 176.019 64.1316 176.686L59.2126 177.29L59.4259 177.058C59.4844 177.534 59.618 177.933 59.8267 178.254C60.0433 178.574 60.3176 178.806 60.6497 178.951C60.9809 179.087 61.3449 179.131 61.742 179.083C62.1628 179.031 62.504 178.888 62.7654 178.655C63.0349 178.42 63.229 178.13 63.3478 177.785L64.2208 178.101C64.108 178.429 63.9387 178.724 63.7128 178.986C63.495 179.246 63.2231 179.461 62.8973 179.63C62.5794 179.798 62.214 179.907 61.8011 179.958ZM59.4358 176.646L59.1622 176.486L63.2714 175.981L63.0461 176.214C62.9993 175.833 62.8834 175.513 62.6984 175.254C62.5134 174.994 62.2846 174.805 62.012 174.685C61.7394 174.565 61.4364 174.526 61.1029 174.567C60.7773 174.607 60.4769 174.72 60.2016 174.907C59.9343 175.093 59.7264 175.336 59.5779 175.637C59.4363 175.928 59.389 176.264 59.4358 176.646ZM67.779 179.224C67.3422 179.278 66.9533 179.261 66.6122 179.174C66.27 179.079 65.9746 178.938 65.726 178.751C65.4853 178.563 65.3017 178.347 65.1752 178.105L65.9665 177.657C66.1346 177.911 66.3639 178.104 66.6544 178.238C66.9448 178.371 67.2528 178.418 67.5784 178.378C67.9516 178.332 68.2565 178.222 68.493 178.048C68.7286 177.866 68.8298 177.64 68.7966 177.37C68.7664 177.124 68.6467 176.937 68.4376 176.81C68.2365 176.681 67.9474 176.592 67.5705 176.541L66.9798 176.457C66.4223 176.38 65.9751 176.217 65.6383 175.969C65.3005 175.712 65.1091 175.401 65.0643 175.036C64.9951 174.472 65.1241 174.013 65.4513 173.658C65.7855 173.295 66.3179 173.068 67.0484 172.978C67.3978 172.936 67.7217 172.948 68.0202 173.016C68.3188 173.084 68.583 173.201 68.8128 173.366C69.0417 173.524 69.2194 173.723 69.3458 173.966L68.5574 174.437C68.4211 174.18 68.2265 174.007 67.9736 173.917C67.7208 173.827 67.4236 173.803 67.0822 173.845C66.717 173.89 66.4409 174.004 66.2539 174.188C66.066 174.365 65.9891 174.592 66.0232 174.87C66.0427 175.028 66.1446 175.169 66.3289 175.291C66.5202 175.405 66.7879 175.485 67.1321 175.531L67.7467 175.613C68.1474 175.661 68.4905 175.763 68.776 175.922C69.0604 176.072 69.2848 176.258 69.449 176.48C69.6132 176.702 69.7119 176.947 69.7451 177.217C69.789 177.575 69.7317 177.896 69.5733 178.182C69.4149 178.467 69.1817 178.701 68.8737 178.884C68.5647 179.059 68.1998 179.172 67.779 179.224ZM73.482 178.524C72.9023 178.595 72.4352 178.499 72.0805 178.236C71.7259 177.974 71.5149 177.568 71.4476 177.02L70.6828 170.791L71.6356 170.674L72.3888 176.808C72.4258 177.11 72.534 177.334 72.7133 177.482C72.8995 177.62 73.1395 177.671 73.4333 177.635C73.5286 177.623 73.6184 177.6 73.7029 177.566C73.7943 177.522 73.9086 177.436 74.0458 177.306L74.5101 178.035C74.3202 178.195 74.1448 178.309 73.9839 178.377C73.824 178.454 73.6567 178.502 73.482 178.524ZM69.9785 173.622L69.8747 172.777L73.6503 172.313L73.7542 173.159L69.9785 173.622ZM75.7862 178.096L75.0549 172.14L76.0078 172.023L76.739 177.979L75.7862 178.096ZM75.3736 170.699C75.2148 170.718 75.0685 170.676 74.9348 170.571C74.8011 170.467 74.7245 170.335 74.705 170.176C74.6845 170.01 74.727 169.863 74.8324 169.738C74.9369 169.604 75.0686 169.527 75.2274 169.508C75.3941 169.487 75.5404 169.53 75.6662 169.635C75.7989 169.732 75.8756 169.864 75.896 170.03C75.9155 170.189 75.873 170.335 75.7686 170.469C75.672 170.602 75.5404 170.678 75.3736 170.699ZM81.1447 177.583C80.565 177.654 80.0328 177.586 79.548 177.38C79.0702 177.165 78.6755 176.838 78.3639 176.401C78.0523 175.964 77.8589 175.439 77.7839 174.828C77.7088 174.217 77.7656 173.661 77.9542 173.163C78.1508 172.663 78.4553 172.255 78.8678 171.938C79.2872 171.613 79.7828 171.415 80.3545 171.345C80.9421 171.273 81.4748 171.344 81.9526 171.56C82.4374 171.766 82.8316 172.088 83.1353 172.527C83.4469 172.964 83.6402 173.488 83.7153 174.1C83.7904 174.711 83.7296 175.267 83.5331 175.766C83.3444 176.265 83.0444 176.677 82.6329 177.001C82.2204 177.318 81.7243 177.512 81.1447 177.583ZM81.0364 176.702C81.4335 176.653 81.7672 176.515 82.0376 176.288C82.3079 176.062 82.506 175.771 82.6318 175.418C82.7656 175.063 82.8052 174.663 82.7506 174.218C82.696 173.773 82.5608 173.395 82.3452 173.083C82.1375 172.77 81.8711 172.537 81.546 172.383C81.2208 172.23 80.8598 172.177 80.4627 172.226C80.0737 172.274 79.74 172.412 79.4616 172.639C79.1912 172.866 78.9892 173.157 78.8554 173.512C78.7296 173.866 78.694 174.265 78.7486 174.709C78.8022 175.146 78.9334 175.525 79.1421 175.846C79.3577 176.158 79.6281 176.391 79.9532 176.544C80.2863 176.697 80.6474 176.749 81.0364 176.702ZM85.4039 176.915L84.6727 170.96L85.566 170.85L85.7601 171.938L86.3568 176.798L85.4039 176.915ZM89.5845 176.402L89.2101 173.352L90.163 173.235L90.5374 176.285L89.5845 176.402ZM89.2101 173.352C89.138 172.765 89.0154 172.324 88.8424 172.031C88.6694 171.738 88.457 171.551 88.2051 171.469C87.9523 171.379 87.675 171.353 87.3733 171.39C86.8492 171.454 86.4632 171.691 86.2152 172.1C85.9742 172.5 85.8951 173.038 85.978 173.713L85.5135 173.77C85.4365 173.143 85.4615 172.592 85.5885 172.117C85.7156 171.642 85.9392 171.263 86.2593 170.982C86.5794 170.701 86.9857 170.53 87.478 170.47C87.9464 170.413 88.3631 170.458 88.7279 170.607C89.0997 170.746 89.4058 171.007 89.6461 171.389C89.8943 171.769 90.0549 172.29 90.1279 172.95L90.163 173.235L89.2101 173.352ZM97.3759 175.59C96.971 175.64 96.5944 175.625 96.2463 175.547C95.9052 175.46 95.6033 175.332 95.3407 175.163C95.0861 174.993 94.8776 174.805 94.7153 174.599L95.492 174.032C95.593 174.132 95.7158 174.246 95.8604 174.374C96.012 174.492 96.1968 174.586 96.415 174.656C96.6331 174.726 96.8931 174.742 97.1948 174.705C97.7347 174.639 98.1485 174.431 98.436 174.082C98.7235 173.732 98.8386 173.323 98.781 172.854C98.7372 172.497 98.6009 172.207 98.3721 171.986C98.1513 171.763 97.8505 171.61 97.4696 171.528C97.0888 171.446 96.6443 171.436 96.1361 171.499L95.9098 171.526L95.8133 170.74L96.0157 170.715C96.516 170.654 96.9834 170.653 97.4178 170.712C97.8523 170.772 98.2376 170.89 98.5736 171.066C98.9175 171.242 99.1919 171.474 99.3966 171.763C99.6094 172.051 99.7406 172.398 99.7903 172.803C99.8507 173.295 99.7808 173.743 99.5805 174.147C99.3871 174.541 99.0966 174.867 98.7091 175.124C98.3206 175.373 97.8762 175.529 97.3759 175.59ZM95.8996 171.443L95.8045 170.669L96.0308 170.641C96.7137 170.557 97.2395 170.376 97.6082 170.097C97.9839 169.809 98.145 169.446 98.0913 169.01C98.0621 168.772 97.9718 168.561 97.8203 168.378C97.668 168.187 97.4614 168.047 97.2006 167.958C96.9468 167.861 96.6611 167.831 96.3435 167.87C96.1291 167.897 95.9305 167.953 95.7477 168.04C95.5719 168.118 95.4119 168.226 95.2677 168.365C95.1305 168.495 95.0091 168.655 94.9035 168.845L94.0618 168.489C94.1825 168.224 94.3467 167.986 94.5546 167.776C94.7704 167.564 95.0228 167.388 95.3118 167.247C95.6009 167.107 95.9241 167.015 96.2814 166.971C96.7658 166.912 97.2102 166.954 97.6148 167.098C98.0272 167.24 98.3651 167.465 98.6284 167.771C98.8907 168.069 99.0472 168.425 99.0979 168.838C99.1408 169.187 99.0954 169.507 98.9618 169.797C98.8282 170.088 98.6223 170.347 98.3439 170.575C98.0735 170.801 97.7457 170.987 97.3604 171.131C96.982 171.266 96.5626 171.362 96.102 171.418L95.8996 171.443Z" fill="#001F2E"/>
<rect x="43.825" y="193.748" width="211.68" height="5.76" transform="rotate(-7 43.825 193.748)" fill="#E6E8EA"/>
<rect x="44.8779" y="202.323" width="134.64" height="5.76" transform="rotate(-7 44.8779 202.323)" fill="#E6E8EA"/>
<rect x="22.4976" y="49.5919" width="221.76" height="46.8" transform="rotate(-7 22.4976 49.5919)" fill="#6A38EF" fill-opacity="0.08" stroke="#6A38EF" stroke-width="1.44" stroke-dasharray="2.88 2.88"/>
<rect x="126.571" y="34.6369" width="4.32" height="4.32" transform="rotate(-7 126.571 34.6369)" fill="#6A38EF" fill-opacity="0.2"/>
<rect x="132.274" y="81.0881" width="4.32" height="4.32" transform="rotate(-7 132.274 81.0881)" fill="#6A38EF" fill-opacity="0.2"/>
<rect x="20.0906" y="47.7112" width="4.32" height="4.32" transform="rotate(-7 20.0906 47.7112)" fill="#6A38EF" fill-opacity="0.2"/>
<rect x="22.986" y="71.2943" width="4.32" height="4.32" transform="rotate(-7 22.986 71.2943)" fill="#6A38EF" fill-opacity="0.2"/>
<rect x="25.7938" y="94.1622" width="4.32" height="4.32" transform="rotate(-7 25.7938 94.1622)" fill="#6A38EF" fill-opacity="0.2"/>
<rect x="200.102" y="81.1027" width="52.32" height="19.44" rx="9.72" transform="rotate(-7 200.102 81.1027)" fill="#F3EFFE"/>
<rect x="200.102" y="81.1027" width="52.32" height="19.44" rx="9.72" transform="rotate(-7 200.102 81.1027)" stroke="#6A38EF" stroke-width="0.72"/>
<path d="M195.893 116.081L194.462 114.962C194.335 114.864 194.23 114.741 194.151 114.602C194.072 114.463 194.021 114.31 194.002 114.151C193.982 113.993 193.995 113.831 194.037 113.677C194.08 113.523 194.153 113.379 194.252 113.253L199.239 106.87L193.961 105.557L193.926 105.548C193.624 105.46 193.354 105.285 193.151 105.045C192.947 104.805 192.819 104.51 192.782 104.198L192.772 104.12C192.746 103.792 192.821 103.465 192.987 103.182C193.153 102.898 193.402 102.673 193.7 102.536L209.142 95.3075C209.412 95.1808 209.712 95.1315 210.009 95.1649C210.305 95.1984 210.587 95.3134 210.822 95.4971C211.057 95.6808 211.237 95.9261 211.341 96.2057C211.445 96.4854 211.47 96.7884 211.412 97.0812L208.135 113.813C208.07 114.134 207.909 114.426 207.675 114.654C207.44 114.881 207.142 115.032 206.82 115.087C206.499 115.142 206.167 115.099 205.871 114.963C205.574 114.826 205.325 114.603 205.157 114.323L205.14 114.291L202.585 109.488L197.599 115.871C197.4 116.125 197.109 116.29 196.789 116.329C196.47 116.368 196.147 116.279 195.893 116.081Z" fill="#001F2E"/>
</g>
<rect x="8.01775" y="36.0358" width="254.4" height="193.4" rx="7.2" transform="rotate(-7 8.01775 36.0358)" stroke="#BFADF2" stroke-width="1.6"/>
</g>
<defs>
<filter id="filter0_d_1_457" x="-0.553779" y="-0.339329" width="293.216" height="240.105" filterUnits="userSpaceOnUse" color-interpolation-filters="sRGB">
<feFlood flood-opacity="0" result="BackgroundImageFix"/>
<feColorMatrix in="SourceAlpha" type="matrix" values="0 0 0 0 0 0 0 0 0 0 0 0 0 0 0 0 0 0 127 0" result="hardAlpha"/>
<feMorphology radius="1.28" operator="dilate" in="SourceAlpha" result="effect1_dropShadow_1_457"/>
<feOffset dy="3.2"/>
<feGaussianBlur stdDeviation="3.2"/>
<feComposite in2="hardAlpha" operator="out"/>
<feColorMatrix type="matrix" values="0 0 0 0 0 0 0 0 0 0 0 0 0 0 0 0 0 0 0.1 0"/>
<feBlend mode="normal" in2="BackgroundImageFix" result="effect1_dropShadow_1_457"/>
<feBlend mode="normal" in="SourceGraphic" in2="effect1_dropShadow_1_457" result="shape"/>
</filter>
<clipPath id="clip0_1_457">
<rect x="7.12622" y="35.3392" width="256" height="195" rx="8" transform="rotate(-7 7.12622 35.3392)" fill="white"/>
</clipPath>
</defs>
</svg>
