<svg width="161" height="113" viewBox="0 0 161 113" fill="none" xmlns="http://www.w3.org/2000/svg">
<g filter="url(#filter0_d_1_499)">
<g clip-path="url(#clip0_1_499)">
<rect x="8.78894" y="36.0875" width="256" height="64" rx="8" transform="rotate(-7 8.78894 36.0875)" fill="white"/>
<rect x="79.8228" y="42.1962" width="49.92" height="34.56" rx="17.28" transform="rotate(-7 79.8228 42.1962)" stroke="#6298CA" stroke-width="1.28"/>
<path d="M114.632 59.2817L110.352 55.9377L113.695 51.6579C113.762 51.5728 113.792 51.4647 113.778 51.3575C113.765 51.2503 113.71 51.1527 113.625 51.0861L110.627 48.7433C110.542 48.6768 110.434 48.6468 110.326 48.66C110.219 48.6732 110.122 48.7284 110.055 48.8136L106.711 53.0934L102.432 49.7496C102.261 49.6164 101.993 49.6493 101.86 49.8198L99.5169 52.8179C99.4503 52.9031 99.4204 53.0112 99.4335 53.1185C99.4467 53.2258 99.502 53.3234 99.5871 53.39L103.867 56.7339L100.523 61.0144C100.456 61.0996 100.426 61.2077 100.44 61.3149C100.453 61.4222 100.508 61.5198 100.593 61.5864L103.591 63.929C103.676 63.9955 103.784 64.0255 103.892 64.0123C103.999 63.9991 104.096 63.9439 104.163 63.8587L107.507 59.5782L111.788 62.9223C111.877 62.9915 111.985 63.0184 112.089 63.0057C112.192 62.9929 112.291 62.9406 112.36 62.852L114.703 59.8537C114.769 59.7685 114.799 59.6604 114.786 59.5531C114.773 59.4459 114.718 59.3483 114.632 59.2817Z" fill="#AB091E"/>
<rect x="145.887" y="34.0846" width="49.92" height="34.56" rx="17.28" transform="rotate(-7 145.887 34.0846)" stroke="#6298CA" stroke-width="1.28"/>
</g>
</g>
<defs>
<filter id="filter0_d_1_499" x="-0.81106" y="-0.711023" width="281.091" height="113.921" filterUnits="userSpaceOnUse" color-interpolation-filters="sRGB">
<feFlood flood-opacity="0" result="BackgroundImageFix"/>
<feColorMatrix in="SourceAlpha" type="matrix" values="0 0 0 0 0 0 0 0 0 0 0 0 0 0 0 0 0 0 127 0" result="hardAlpha"/>
<feMorphology radius="1.6" operator="dilate" in="SourceAlpha" result="effect1_dropShadow_1_499"/>
<feOffset dy="4"/>
<feGaussianBlur stdDeviation="4"/>
<feComposite in2="hardAlpha" operator="out"/>
<feColorMatrix type="matrix" values="0 0 0 0 0 0 0 0 0 0 0 0 0 0 0 0 0 0 0.1 0"/>
<feBlend mode="normal" in2="BackgroundImageFix" result="effect1_dropShadow_1_499"/>
<feBlend mode="normal" in="SourceGraphic" in2="effect1_dropShadow_1_499" result="shape"/>
</filter>
<clipPath id="clip0_1_499">
<rect x="8.78894" y="36.0875" width="256" height="64" rx="8" transform="rotate(-7 8.78894 36.0875)" fill="white"/>
</clipPath>
</defs>
</svg>
