<svg width="280" height="113" viewBox="0 0 280 113" fill="none" xmlns="http://www.w3.org/2000/svg">
<g filter="url(#filter0_d_1_381)">
<g clip-path="url(#clip0_1_381)">
<rect x="8.81116" y="36.4169" width="256" height="64" rx="8" transform="rotate(-7 8.81116 36.4169)" fill="white"/>
<rect x="79.8451" y="42.5256" width="49.92" height="34.56" rx="17.28" transform="rotate(-7 79.8451 42.5256)" stroke="#6298CA" stroke-width="1.28"/>
<path d="M114.655 59.6111L110.374 56.2671L113.717 51.9873C113.784 51.9022 113.814 51.7941 113.801 51.6869C113.787 51.5797 113.732 51.4821 113.647 51.4155L110.649 49.0727C110.564 49.0062 110.456 48.9762 110.349 48.9894C110.241 49.0026 110.144 49.0578 110.077 49.143L106.733 53.4228L102.454 50.079C102.284 49.9458 102.015 49.9788 101.882 50.1492L99.5392 53.1474C99.4726 53.2325 99.4426 53.3406 99.4558 53.4479C99.469 53.5552 99.5242 53.6528 99.6094 53.7194L103.889 57.0633L100.545 61.3438C100.479 61.4291 100.449 61.5371 100.462 61.6443C100.475 61.7516 100.53 61.8492 100.615 61.9158L103.613 64.2584C103.698 64.3249 103.807 64.3549 103.914 64.3417C104.021 64.3285 104.119 64.2733 104.185 64.1881L107.53 59.9076L111.81 63.2517C111.899 63.3209 112.007 63.3479 112.111 63.3351C112.215 63.3223 112.313 63.27 112.382 63.1814L114.725 60.1831C114.792 60.0979 114.822 59.9898 114.808 59.8826C114.795 59.7753 114.74 59.6777 114.655 59.6111Z" fill="#AB091E"/>
<rect x="145.909" y="34.414" width="49.92" height="34.56" rx="17.28" transform="rotate(-7 145.909 34.414)" stroke="#6298CA" stroke-width="1.28"/>
<path d="M181.99 44.4847L173.046 55.9319C172.837 56.1993 172.531 56.3727 172.194 56.414C171.857 56.4554 171.518 56.3613 171.25 56.1525L164.861 51.1337C164.594 50.9247 164.421 50.6182 164.38 50.2816C164.339 49.945 164.432 49.6057 164.641 49.3383L166.034 47.5553C166.243 47.2889 166.549 47.1162 166.885 47.075C167.221 47.0337 167.56 47.1273 167.827 47.3351L171.448 50.0759L178.199 41.5439C178.408 41.2773 178.715 41.1044 179.051 41.0631C179.387 41.0219 179.726 41.1155 179.993 41.3237L181.768 42.6807C181.901 42.7841 182.013 42.913 182.097 43.0598C182.18 43.2067 182.234 43.3687 182.255 43.5364C182.275 43.7041 182.263 43.8742 182.217 44.037C182.172 44.1997 182.095 44.3519 181.99 44.4847Z" fill="#0C6B58"/>
</g>
</g>
<defs>
<filter id="filter0_d_1_381" x="-0.788843" y="-0.381616" width="281.091" height="113.921" filterUnits="userSpaceOnUse" color-interpolation-filters="sRGB">
<feFlood flood-opacity="0" result="BackgroundImageFix"/>
<feColorMatrix in="SourceAlpha" type="matrix" values="0 0 0 0 0 0 0 0 0 0 0 0 0 0 0 0 0 0 127 0" result="hardAlpha"/>
<feMorphology radius="1.6" operator="dilate" in="SourceAlpha" result="effect1_dropShadow_1_381"/>
<feOffset dy="4"/>
<feGaussianBlur stdDeviation="4"/>
<feComposite in2="hardAlpha" operator="out"/>
<feColorMatrix type="matrix" values="0 0 0 0 0 0 0 0 0 0 0 0 0 0 0 0 0 0 0.1 0"/>
<feBlend mode="normal" in2="BackgroundImageFix" result="effect1_dropShadow_1_381"/>
<feBlend mode="normal" in="SourceGraphic" in2="effect1_dropShadow_1_381" result="shape"/>
</filter>
<clipPath id="clip0_1_381">
<rect x="8.81116" y="36.4169" width="256" height="64" rx="8" transform="rotate(-7 8.81116 36.4169)" fill="white"/>
</clipPath>
</defs>
</svg>
