<svg width="280" height="113" viewBox="0 0 280 113" fill="none" xmlns="http://www.w3.org/2000/svg">
<g filter="url(#filter0_d_1_363)">
<g clip-path="url(#clip0_1_363)">
<rect x="9.1134" y="36.6921" width="256" height="64" rx="8" transform="rotate(-7 9.1134 36.6921)" fill="white"/>
<g clip-path="url(#clip1_1_363)">
<rect x="24.1335" y="53.9906" width="55.6" height="26" rx="6.4" transform="rotate(-7 24.1335 53.9906)" fill="#FBC02D" fill-opacity="0.1"/>
<path d="M47.4147 62.7184L44.5646 57.4263L45.4856 57.3132L48.3914 62.5985L47.4147 62.7184ZM42.9761 63.2634L44.509 57.4331L45.438 57.319L43.9527 63.1435L42.9761 63.2634ZM43.8486 61.7699L43.7482 60.9521L47.0752 60.5436L47.1756 61.3614L43.8486 61.7699ZM50.794 64.0203C50.5135 64.0547 50.2565 64.0621 50.023 64.0424C49.7948 64.022 49.6001 63.9895 49.4387 63.9449C49.2774 63.9002 49.1508 63.8539 49.059 63.8061L49.3127 63.0496C49.3913 63.0775 49.4948 63.1105 49.6231 63.1485C49.7573 63.1911 49.9116 63.2232 50.0862 63.2447C50.2608 63.2663 50.454 63.2641 50.6657 63.2381C50.8934 63.2101 51.0913 63.1374 51.2596 63.0201C51.4285 62.908 51.5516 62.7505 51.6288 62.5476C51.706 62.3446 51.7263 62.095 51.6899 61.7985L51.2502 58.2174L52.1396 58.1082L52.5763 61.6655C52.6316 62.1155 52.5937 62.507 52.4626 62.8401C52.3322 63.1785 52.1233 63.446 51.8358 63.6425C51.5489 63.8443 51.2016 63.9702 50.794 64.0203ZM50.4416 62.2661C50.0817 62.3103 49.7566 62.267 49.4665 62.136C49.1817 62.0044 48.9446 61.8024 48.7554 61.5301C48.5707 61.2519 48.4547 60.9196 48.4073 60.5331C48.3566 60.1202 48.3868 59.7538 48.498 59.4339C48.6144 59.1133 48.7946 58.8521 49.0385 58.6502C49.2877 58.4476 49.5922 58.3243 49.9522 58.2801C50.2751 58.2404 50.5661 58.2907 50.8251 58.4308C51.0894 58.5703 51.3066 58.7854 51.4766 59.0762C51.646 59.3617 51.756 59.7109 51.8067 60.1238C51.8548 60.5155 51.8306 60.8651 51.734 61.1725C51.6374 61.4799 51.4774 61.7306 51.2541 61.9246C51.0353 62.1126 50.7645 62.2265 50.4416 62.2661ZM50.5952 61.4816C50.7963 61.4569 50.9645 61.3825 51.0997 61.2584C51.2402 61.1337 51.3418 60.9761 51.4044 60.7858C51.4663 60.5901 51.4827 60.3731 51.4534 60.1349C51.4235 59.8914 51.3552 59.6849 51.2484 59.5153C51.141 59.3404 51.0043 59.2121 50.8384 59.1304C50.6719 59.0434 50.4881 59.0122 50.2869 59.0369C50.0752 59.0629 49.8938 59.1389 49.7427 59.2649C49.5962 59.385 49.4867 59.5435 49.4142 59.7405C49.3463 59.9316 49.3273 60.1488 49.3572 60.3923C49.3864 60.6305 49.4574 60.8368 49.5702 61.011C49.6876 61.1793 49.8348 61.3063 50.0119 61.392C50.189 61.4777 50.3834 61.5076 50.5952 61.4816ZM56.0311 61.6604L55.8998 60.9189L55.7408 59.6246C55.7077 59.3547 55.6509 59.1333 55.5706 58.9604C55.4949 58.7816 55.3877 58.6524 55.249 58.5727C55.1149 58.4871 54.9446 58.457 54.7381 58.4823C54.5476 58.5057 54.3857 58.5659 54.2525 58.6628C54.1194 58.7598 54.0129 58.8991 53.9331 59.0809L53.1198 58.8906C53.1831 58.7055 53.2744 58.5304 53.3939 58.3653C53.5179 58.1942 53.6803 58.0507 53.881 57.9347C54.087 57.818 54.3409 57.7412 54.6426 57.7042C55.029 57.6567 55.3614 57.6938 55.6396 57.8155C55.9172 57.9319 56.1341 58.1228 56.2903 58.3885C56.4518 58.6534 56.5569 58.9844 56.6056 59.3814L56.849 61.56L56.0311 61.6604ZM54.8994 61.8961C54.423 61.9546 54.0394 61.8942 53.7487 61.715C53.4634 61.5351 53.2969 61.2519 53.2495 60.8655C53.1988 60.4526 53.2978 60.1207 53.5464 59.8699C53.8003 59.6184 54.176 59.4621 54.6736 59.401L55.7376 59.2704L55.8215 59.9533L55.0433 60.0488C54.6887 60.0923 54.446 60.1732 54.3155 60.2913C54.1842 60.4041 54.1297 60.5506 54.1518 60.7305C54.1706 60.884 54.2464 60.9983 54.3792 61.0734C54.5167 61.1425 54.6966 61.1634 54.9189 61.1361C55.1201 61.1114 55.2892 61.0449 55.4264 60.9367C55.5636 60.8285 55.6628 60.6955 55.724 60.5375C55.7905 60.3789 55.8123 60.2069 55.7896 60.0216L56.0516 59.9895C56.1179 60.5294 56.0617 60.9689 55.883 61.3078C55.7037 61.6415 55.3758 61.8376 54.8994 61.8961ZM57.8289 61.4397L57.3414 57.4695L58.2228 57.3613L58.7103 61.3315L57.8289 61.4397ZM57.6935 56.6606C57.5505 56.6781 57.42 56.6431 57.3018 56.5555C57.1882 56.462 57.1226 56.3438 57.1051 56.2009C57.0875 56.0579 57.1229 55.93 57.2111 55.8171C57.3046 55.7035 57.4228 55.6379 57.5658 55.6204C57.7087 55.6028 57.8366 55.6382 57.9495 55.7264C58.0678 55.814 58.1356 55.9292 58.1532 56.0722C58.1707 56.2151 58.1331 56.346 58.0402 56.4649C57.952 56.5778 57.8364 56.643 57.6935 56.6606ZM59.7584 61.2028L59.2709 57.2326L60.1047 57.1302L60.25 57.8539L60.6477 61.0936L59.7584 61.2028ZM62.4502 60.8723L62.2006 58.8395L63.0899 58.7303L63.3395 60.7631L62.4502 60.8723ZM62.2006 58.8395C62.1616 58.5219 62.0947 58.283 61.9998 58.1227C61.9095 57.9564 61.794 57.847 61.6532 57.7945C61.5177 57.7412 61.3626 57.7254 61.1879 57.7468C60.8908 57.7779 60.6726 57.9041 60.5332 58.1254C60.3938 58.3467 60.3471 58.6453 60.3933 59.0211L60.0598 59.0621C60.0084 58.6439 60.0254 58.2791 60.1108 57.9677C60.1955 57.651 60.3422 57.402 60.551 57.2205C60.7591 57.0337 61.0194 56.9212 61.3317 56.8828C61.6493 56.8438 61.9271 56.8742 62.165 56.974C62.4082 57.0731 62.6046 57.2504 62.7542 57.5061C62.9085 57.7558 63.0119 58.0951 63.0646 58.5239L63.0899 58.7303L62.2006 58.8395Z" fill="#001F2E"/>
<path d="M49.129 71.1725L48.682 67.5318L48.6902 67.2769L49.1126 67.2251L49.5904 71.1158L49.129 71.1725ZM47.9015 68.3893L47.8489 67.9614C47.9272 67.9555 48.0167 67.9182 48.1173 67.8494C48.2179 67.7806 48.3202 67.6947 48.4242 67.5917C48.5281 67.4887 48.6168 67.3837 48.6902 67.2769L49.0181 67.5583C48.9118 67.703 48.7983 67.8354 48.6776 67.9555C48.557 68.0757 48.4319 68.1756 48.3026 68.2555C48.1727 68.3316 48.0391 68.3762 47.9015 68.3893ZM51.9813 70.8223L51.64 68.0431L52.0569 67.992L52.1269 68.3783C52.194 68.2196 52.2894 68.0932 52.4132 67.999C52.5371 67.9048 52.6879 67.8468 52.8658 67.8249C53.0881 67.7976 53.2835 67.8263 53.4518 67.911C53.6239 67.9951 53.7581 68.1385 53.8545 68.3411C53.9073 68.1277 54.0012 67.9582 54.1362 67.8326C54.2749 67.7065 54.448 67.6307 54.6556 67.6052C54.9668 67.567 55.2241 67.6407 55.4275 67.8264C55.6345 68.0116 55.7621 68.3156 55.8103 68.7385L56.0055 70.3282L55.5608 70.3828L55.3861 68.9598C55.3524 68.6856 55.2971 68.4799 55.22 68.3427C55.1467 68.205 55.0587 68.1161 54.956 68.0761C54.8528 68.0323 54.7382 68.0182 54.6122 68.0337C54.3936 68.0605 54.2339 68.1685 54.133 68.3577C54.0316 68.5431 54.0003 68.7934 54.0389 69.1083L54.2157 70.5479L53.771 70.6025L53.5963 69.1796C53.5627 68.9054 53.5073 68.6997 53.4303 68.5624C53.357 68.4247 53.2671 68.3361 53.1607 68.2965C53.0575 68.2528 52.9429 68.2386 52.8169 68.2541C52.602 68.2805 52.4441 68.3883 52.3432 68.5774C52.2418 68.7629 52.2105 69.0131 52.2492 69.3281L52.4259 70.7677L51.9813 70.8223ZM56.7368 70.2384L56.3956 67.4592L56.8403 67.4046L57.1815 70.1838L56.7368 70.2384ZM56.5443 66.7865C56.4702 66.7956 56.402 66.7758 56.3396 66.727C56.2772 66.6782 56.2414 66.6168 56.2323 66.5427C56.2227 66.4649 56.2426 66.3966 56.2918 66.3379C56.3405 66.2755 56.402 66.2398 56.4761 66.2307C56.5539 66.2211 56.6222 66.2409 56.6809 66.2902C56.7428 66.3352 56.7786 66.3966 56.7881 66.4745C56.7972 66.5486 56.7774 66.6168 56.7286 66.6792C56.6836 66.7412 56.6222 66.7769 56.5443 66.7865ZM58.0009 70.0832L57.6597 67.304L58.0766 67.2528L58.1671 67.7608L58.4456 70.0286L58.0009 70.0832ZM59.9519 69.8436L59.7772 68.4207L60.2218 68.3661L60.3965 69.789L59.9519 69.8436ZM59.7772 68.4207C59.7435 68.1465 59.6863 67.941 59.6055 67.8042C59.5248 67.6674 59.4257 67.5799 59.3081 67.5417C59.1901 67.4998 59.0607 67.4874 58.9199 67.5047C58.6754 67.5348 58.4952 67.6453 58.3795 67.8363C58.267 68.0231 58.2301 68.274 58.2688 68.589L58.052 68.6156C58.0161 68.3228 58.0278 68.0656 58.0871 67.844C58.1464 67.6223 58.2507 67.4459 58.4001 67.3147C58.5495 67.1835 58.7391 67.1038 58.9688 67.0756C59.1874 67.0487 59.3819 67.07 59.5521 67.1394C59.7256 67.2046 59.8685 67.3262 59.9806 67.5043C60.0964 67.6819 60.1714 67.9247 60.2054 68.2327L60.2218 68.3661L59.7772 68.4207Z" fill="#083347"/>
</g>
<rect x="24.5793" y="54.3389" width="54.8" height="25.2" rx="6" transform="rotate(-7 24.5793 54.3389)" stroke="#FBC02D" stroke-width="0.8"/>
<g clip-path="url(#clip2_1_363)">
<rect x="82.4952" y="46.8247" width="55.6" height="26" rx="6.4" transform="rotate(-7 82.4952 46.8247)" fill="#E53935" fill-opacity="0.1"/>
<path d="M107.078 55.8964L106.396 50.3382L107.317 50.2251L107.999 55.7833L107.078 55.8964ZM103.362 56.3527L102.679 50.7944L103.6 50.6813L104.283 56.2396L103.362 56.3527ZM103.786 53.8342L103.683 52.9925L107.049 52.5792L107.153 53.4208L103.786 53.8342ZM111.572 55.3446L111.441 54.6031L111.282 53.3088C111.249 53.0388 111.192 52.8174 111.112 52.6446C111.036 52.4658 110.929 52.3366 110.79 52.2569C110.656 52.1713 110.486 52.1411 110.279 52.1665C110.089 52.1899 109.927 52.2501 109.794 52.347C109.66 52.444 109.554 52.5833 109.474 52.765L108.661 52.5747C108.724 52.3897 108.816 52.2146 108.935 52.0494C109.059 51.8784 109.221 51.7348 109.422 51.6189C109.628 51.5022 109.882 51.4254 110.184 51.3883C110.57 51.3409 110.902 51.378 111.181 51.4996C111.458 51.616 111.675 51.807 111.831 52.0726C111.993 52.3376 112.098 52.6686 112.147 53.0656L112.39 55.2442L111.572 55.3446ZM110.441 55.5803C109.964 55.6388 109.581 55.5784 109.29 55.3992C109.004 55.2193 108.838 54.9361 108.791 54.5497C108.74 54.1368 108.839 53.8049 109.087 53.5541C109.341 53.3026 109.717 53.1463 110.215 53.0852L111.279 52.9545L111.363 53.6374L110.584 53.733C110.23 53.7765 109.987 53.8573 109.857 53.9755C109.725 54.0883 109.671 54.2347 109.693 54.4147C109.712 54.5682 109.788 54.6825 109.92 54.7575C110.058 54.8266 110.238 54.8475 110.46 54.8202C110.661 54.7955 110.83 54.7291 110.968 54.6209C111.105 54.5127 111.204 54.3796 111.265 54.2217C111.332 54.063 111.353 53.8911 111.331 53.7058L111.593 53.6736C111.659 54.2136 111.603 54.653 111.424 54.992C111.245 55.3257 110.917 55.5218 110.441 55.5803ZM113.643 52.9464C113.59 52.5176 113.629 52.1555 113.759 51.8601C113.889 51.5647 114.076 51.3349 114.319 51.1707C114.567 51.0006 114.834 50.8979 115.12 50.8628L115.224 51.7125C114.981 51.7424 114.755 51.805 114.546 51.9005C114.342 51.99 114.183 52.117 114.069 52.2815C113.955 52.446 113.913 52.65 113.942 52.8935L113.643 52.9464ZM113.314 55.1307L112.827 51.1605L113.716 51.0513L114.204 55.0215L113.314 55.1307ZM119.066 54.4245L118.935 53.691L118.343 48.8712L119.225 48.7629L119.907 54.3212L119.066 54.4245ZM117.783 54.6787C117.423 54.7229 117.098 54.6769 116.807 54.5407C116.521 54.3985 116.282 54.1806 116.09 53.8872C115.903 53.593 115.784 53.2369 115.733 52.8187C115.681 52.3952 115.71 52.0209 115.821 51.6956C115.936 51.3645 116.115 51.0979 116.359 50.896C116.608 50.6882 116.912 50.5622 117.272 50.518C117.606 50.477 117.902 50.5293 118.162 50.6747C118.426 50.8142 118.641 51.0323 118.806 51.329C118.971 51.6205 119.079 51.9779 119.131 52.4014C119.183 52.8196 119.164 53.1927 119.075 53.5206C118.987 53.8485 118.831 54.1148 118.609 54.3193C118.392 54.518 118.116 54.6378 117.783 54.6787ZM117.906 53.8415C118.107 53.8168 118.278 53.7421 118.418 53.6174C118.563 53.4867 118.667 53.3209 118.728 53.1199C118.795 52.9183 118.813 52.6931 118.782 52.4443C118.752 52.1955 118.68 51.9814 118.566 51.8018C118.458 51.6217 118.318 51.4884 118.146 51.402C117.98 51.315 117.793 51.2842 117.587 51.3095C117.375 51.3355 117.194 51.4115 117.043 51.5375C116.891 51.6636 116.78 51.8277 116.708 52.03C116.642 52.2316 116.621 52.4571 116.646 52.7066C116.682 52.9547 116.757 53.1686 116.87 53.3481C116.989 53.527 117.137 53.6619 117.315 53.7529C117.497 53.838 117.694 53.8675 117.906 53.8415Z" fill="#001F2E"/>
<path d="M104.375 64.8928L103.928 61.2522L103.937 60.9973L104.359 60.9454L104.837 64.8362L104.375 64.8928ZM103.148 62.1097L103.095 61.6817C103.174 61.6758 103.263 61.6385 103.364 61.5697C103.464 61.501 103.567 61.4151 103.671 61.312C103.775 61.209 103.863 61.1041 103.937 60.9973L104.265 61.2786C104.158 61.4233 104.045 61.5557 103.924 61.6759C103.803 61.796 103.678 61.896 103.549 61.9758C103.419 62.0519 103.286 62.0965 103.148 62.1097ZM107.085 64.6278C106.93 64.6469 106.768 64.6442 106.599 64.6198C106.434 64.5912 106.273 64.5376 106.117 64.459C105.964 64.3799 105.832 64.2701 105.721 64.1296L106.072 63.8664C106.222 64.0135 106.377 64.1148 106.538 64.1702C106.699 64.2257 106.861 64.2434 107.025 64.2234C107.28 64.192 107.478 64.0887 107.618 63.9135C107.762 63.7342 107.818 63.5166 107.787 63.261C107.756 63.009 107.653 62.8129 107.477 62.6727C107.302 62.5324 107.089 62.4778 106.837 62.5087C106.699 62.5256 106.568 62.5737 106.442 62.653C106.316 62.7287 106.222 62.8155 106.158 62.9136L105.724 62.8654L105.66 60.7856L107.733 60.5311L107.785 60.9535L106.129 61.1569L106.164 62.4107C106.26 62.335 106.369 62.2708 106.491 62.2183C106.612 62.1658 106.738 62.1316 106.867 62.1156C107.104 62.0865 107.322 62.1125 107.52 62.1935C107.718 62.2745 107.882 62.401 108.012 62.5731C108.143 62.7452 108.222 62.9517 108.252 63.1925C108.283 63.4445 108.253 63.6739 108.162 63.8807C108.074 64.0833 107.936 64.2506 107.749 64.3826C107.566 64.5142 107.345 64.5959 107.085 64.6278ZM110.425 64.1501L110.084 61.3709L110.5 61.3197L110.57 61.7061C110.637 61.5474 110.733 61.421 110.857 61.3268C110.981 61.2326 111.131 61.1746 111.309 61.1527C111.532 61.1254 111.727 61.1541 111.895 61.2387C112.067 61.3229 112.202 61.4663 112.298 61.6689C112.351 61.4555 112.445 61.286 112.58 61.1604C112.718 61.0342 112.892 60.9584 113.099 60.933C113.41 60.8947 113.668 60.9685 113.871 61.1541C114.078 61.3394 114.206 61.6434 114.254 62.0663L114.449 63.6559L114.004 63.7105L113.83 62.2876C113.796 62.0134 113.741 61.8077 113.664 61.6705C113.59 61.5328 113.502 61.4439 113.4 61.4039C113.296 61.3601 113.182 61.346 113.056 61.3614C112.837 61.3883 112.677 61.4963 112.577 61.6855C112.475 61.8709 112.444 62.1211 112.482 62.4361L112.659 63.8757L112.215 63.9303L112.04 62.5074C112.006 62.2332 111.951 62.0275 111.874 61.8902C111.8 61.7525 111.711 61.6639 111.604 61.6243C111.501 61.5805 111.386 61.5664 111.26 61.5819C111.046 61.6083 110.888 61.716 110.787 61.9052C110.685 62.0907 110.654 62.3409 110.693 62.6559L110.869 64.0955L110.425 64.1501ZM115.18 63.5661L114.839 60.787L115.284 60.7324L115.625 63.5115L115.18 63.5661ZM114.988 60.1143C114.914 60.1234 114.846 60.1035 114.783 60.0548C114.721 60.006 114.685 59.9446 114.676 59.8705C114.666 59.7927 114.686 59.7244 114.735 59.6657C114.784 59.6033 114.846 59.5676 114.92 59.5585C114.997 59.5489 115.066 59.5687 115.124 59.6179C115.186 59.663 115.222 59.7244 115.232 59.8022C115.241 59.8764 115.221 59.9446 115.172 60.007C115.127 60.069 115.066 60.1047 114.988 60.1143ZM116.444 63.4109L116.103 60.6318L116.52 60.5806L116.611 61.0886L116.889 63.3563L116.444 63.4109ZM118.395 63.1714L118.221 61.7485L118.665 61.6939L118.84 63.1168L118.395 63.1714ZM118.221 61.7485C118.187 61.4743 118.13 61.2688 118.049 61.132C117.968 60.9952 117.869 60.9077 117.752 60.8695C117.634 60.8276 117.504 60.8152 117.363 60.8325C117.119 60.8625 116.939 60.9731 116.823 61.164C116.711 61.3509 116.674 61.6018 116.712 61.9168L116.496 61.9434C116.46 61.6506 116.471 61.3934 116.531 61.1717C116.59 60.9501 116.694 60.7736 116.844 60.6425C116.993 60.5113 117.183 60.4316 117.412 60.4034C117.631 60.3765 117.825 60.3978 117.996 60.4672C118.169 60.5324 118.312 60.654 118.424 60.8321C118.54 61.0097 118.615 61.2525 118.649 61.5605L118.665 61.6939L118.221 61.7485ZM120.525 62.9776C120.321 63.0027 120.139 62.9949 119.98 62.9542C119.821 62.9099 119.683 62.8441 119.567 62.7568C119.454 62.669 119.369 62.5686 119.31 62.4554L119.679 62.2465C119.757 62.3647 119.864 62.455 120 62.5174C120.135 62.5797 120.279 62.6016 120.431 62.5829C120.605 62.5615 120.748 62.5102 120.858 62.4289C120.968 62.344 121.015 62.2385 121 62.1125C120.986 61.9977 120.93 61.9105 120.832 61.851C120.738 61.791 120.603 61.7493 120.427 61.7258L120.152 61.6863C119.892 61.6505 119.683 61.5746 119.526 61.4585C119.368 61.3387 119.279 61.1935 119.258 61.0231C119.226 60.76 119.286 60.5457 119.438 60.3803C119.594 60.2107 119.843 60.1049 120.184 60.0631C120.347 60.0431 120.498 60.0489 120.637 60.0807C120.777 60.1125 120.9 60.167 121.007 60.2441C121.114 60.3175 121.197 60.4107 121.256 60.5238L120.888 60.7439C120.824 60.6239 120.734 60.5428 120.616 60.5009C120.498 60.459 120.359 60.4478 120.2 60.4674C120.029 60.4883 119.9 60.5417 119.813 60.6277C119.725 60.7099 119.689 60.8159 119.705 60.9456C119.714 61.0197 119.762 61.0853 119.848 61.1424C119.937 61.1954 120.062 61.2327 120.223 61.2544L120.51 61.2925C120.697 61.3147 120.857 61.3627 120.99 61.4367C121.123 61.5069 121.227 61.5937 121.304 61.6971C121.381 61.8006 121.427 61.9153 121.442 62.0413C121.463 62.208 121.436 62.358 121.362 62.4912C121.288 62.6244 121.179 62.7337 121.036 62.819C120.891 62.9007 120.721 62.9535 120.525 62.9776Z" fill="#083347"/>
</g>
<rect x="82.941" y="47.173" width="54.8" height="25.2" rx="6" transform="rotate(-7 82.941 47.173)" stroke="#E53935" stroke-width="0.8"/>
<g clip-path="url(#clip3_1_363)">
<rect x="140.857" y="39.6588" width="55.6" height="26" rx="6.4" transform="rotate(-7 140.857 39.6588)" fill="#007F70" fill-opacity="0.1"/>
<path d="M163.134 48.6066C162.573 48.6755 162.057 48.6151 161.588 48.4256C161.124 48.2301 160.741 47.9332 160.439 47.535C160.137 47.1314 159.952 46.6518 159.884 46.0959C159.814 45.5295 159.877 45.0167 160.074 44.5573C160.269 44.0927 160.569 43.712 160.973 43.4152C161.382 43.1124 161.867 42.9266 162.428 42.8577C162.751 42.8181 163.059 42.8313 163.352 42.8975C163.65 42.9629 163.923 43.069 164.173 43.2158C164.421 43.3572 164.631 43.533 164.802 43.7431L164.114 44.3111C163.994 44.17 163.848 44.0483 163.674 43.946C163.5 43.8437 163.314 43.7726 163.116 43.7324C162.922 43.6864 162.727 43.6754 162.531 43.6994C162.15 43.7462 161.822 43.8751 161.547 44.0862C161.277 44.2967 161.077 44.5658 160.945 44.8936C160.813 45.2162 160.771 45.5786 160.821 45.9809C160.869 46.3726 160.994 46.7119 161.195 46.9988C161.403 47.285 161.665 47.4973 161.983 47.6356C162.306 47.7732 162.664 47.818 163.055 47.7699C163.362 47.7322 163.63 47.6349 163.858 47.4779C164.086 47.321 164.254 47.1203 164.364 46.8757C164.479 46.6306 164.518 46.3597 164.482 46.0633L165.35 45.8439C165.411 46.3468 165.356 46.7969 165.185 47.1941C165.018 47.5853 164.756 47.9049 164.4 48.1529C164.048 48.3949 163.626 48.5461 163.134 48.6066ZM163.157 46.2986L163.065 45.5522L165.28 45.2802L165.356 45.8995L164.88 46.087L163.157 46.2986ZM168.2 47.9845C167.803 48.0333 167.437 47.9895 167.104 47.8531C166.774 47.7109 166.503 47.4943 166.29 47.2034C166.077 46.9125 165.946 46.5633 165.896 46.1557C165.846 45.7481 165.886 45.3777 166.017 45.0446C166.154 44.7108 166.364 44.4378 166.65 44.2254C166.935 44.0077 167.276 43.8745 167.673 43.8257C168.07 43.777 168.433 43.8238 168.762 43.966C169.091 44.103 169.359 44.3173 169.567 44.6088C169.78 44.8997 169.911 45.2489 169.961 45.6565C170.011 46.0641 169.971 46.4345 169.84 46.7676C169.709 47.1007 169.501 47.3761 169.216 47.5938C168.93 47.8062 168.591 47.9364 168.2 47.9845ZM168.099 47.1667C168.316 47.14 168.503 47.0634 168.659 46.9367C168.815 46.8047 168.929 46.6403 169.002 46.4433C169.074 46.241 169.094 46.0155 169.064 45.7667C169.033 45.5179 168.956 45.307 168.833 45.1341C168.714 44.9552 168.564 44.8233 168.381 44.7382C168.198 44.6478 167.996 44.6163 167.773 44.6436C167.551 44.6709 167.362 44.7479 167.205 44.8745C167.049 45.0012 166.935 45.1657 166.863 45.368C166.791 45.5702 166.77 45.7958 166.801 46.0446C166.831 46.2934 166.906 46.5072 167.025 46.6861C167.148 46.859 167.301 46.9906 167.484 47.081C167.672 47.1654 167.877 47.194 168.099 47.1667ZM172.814 47.418C172.417 47.4668 172.051 47.423 171.717 47.2866C171.388 47.1444 171.117 46.9278 170.904 46.6369C170.691 46.346 170.56 45.9968 170.509 45.5892C170.459 45.1816 170.5 44.8112 170.631 44.4781C170.767 44.1443 170.978 43.8713 171.264 43.6589C171.549 43.4412 171.89 43.308 172.287 43.2592C172.684 43.2105 173.047 43.2573 173.376 43.3995C173.704 43.5365 173.973 43.7508 174.18 44.0423C174.393 44.3332 174.525 44.6824 174.575 45.09C174.625 45.4976 174.585 45.868 174.453 46.2011C174.322 46.5342 174.114 46.8096 173.829 47.0273C173.544 47.2397 173.205 47.3699 172.814 47.418ZM172.713 46.6002C172.93 46.5735 173.117 46.4969 173.273 46.3702C173.429 46.2382 173.543 46.0738 173.616 45.8768C173.688 45.6745 173.708 45.449 173.678 45.2002C173.647 44.9514 173.57 44.7405 173.447 44.5676C173.328 44.3887 173.178 44.2568 172.995 44.1717C172.812 44.0813 172.61 44.0498 172.387 44.0771C172.165 44.1044 171.976 44.1814 171.819 44.308C171.663 44.4347 171.549 44.5992 171.477 44.8015C171.405 45.0037 171.384 45.2293 171.415 45.4781C171.445 45.7268 171.52 45.9407 171.639 46.1196C171.762 46.2925 171.915 46.4241 172.098 46.5145C172.286 46.5989 172.491 46.6275 172.713 46.6002ZM178.456 46.6285L178.325 45.8949L177.734 41.0751L178.615 40.9669L179.297 46.5252L178.456 46.6285ZM177.173 46.8827C176.813 46.9269 176.488 46.8809 176.197 46.7447C175.911 46.6025 175.672 46.3846 175.48 46.0912C175.294 45.797 175.175 45.4409 175.123 45.0227C175.071 44.5992 175.101 44.2249 175.211 43.8996C175.326 43.5685 175.506 43.3019 175.75 43.1C175.998 42.8922 176.302 42.7662 176.662 42.722C176.996 42.681 177.292 42.7333 177.552 42.8787C177.816 43.0182 178.031 43.2363 178.197 43.533C178.361 43.8245 178.47 44.1819 178.522 44.6054C178.573 45.0236 178.554 45.3967 178.466 45.7246C178.377 46.0525 178.222 46.3188 178 46.5233C177.782 46.722 177.507 46.8418 177.173 46.8827ZM177.296 46.0455C177.497 46.0208 177.668 45.9461 177.809 45.8214C177.954 45.6907 178.057 45.5249 178.118 45.3239C178.185 45.1223 178.203 44.8971 178.172 44.6483C178.142 44.3995 178.07 44.1854 177.956 44.0058C177.848 43.8257 177.708 43.6924 177.537 43.606C177.37 43.519 177.184 43.4882 176.977 43.5135C176.765 43.5395 176.584 43.6155 176.433 43.7415C176.282 43.8676 176.17 44.0317 176.098 44.234C176.032 44.4356 176.011 44.6611 176.036 44.9106C176.072 45.1587 176.147 45.3726 176.26 45.5521C176.379 45.7309 176.527 45.8659 176.705 45.9569C176.887 46.042 177.084 46.0715 177.296 46.0455Z" fill="#001F2E"/>
<path d="M165.654 56.865L165.207 53.2243L165.215 52.9694L165.638 52.9176L166.115 56.8083L165.654 56.865ZM164.426 54.0818L164.374 53.6539C164.452 53.648 164.542 53.6107 164.642 53.5419C164.743 53.4731 164.845 53.3872 164.949 53.2842C165.053 53.1812 165.142 53.0762 165.215 52.9694L165.543 53.2508C165.437 53.3955 165.323 53.5279 165.203 53.648C165.082 53.7682 164.957 53.8681 164.828 53.948C164.698 54.0241 164.564 54.0687 164.426 54.0818ZM170.563 56.2623L170.477 55.7481L170.063 52.3742L170.508 52.3196L170.985 56.2104L170.563 56.2623ZM169.609 56.447C169.361 56.4775 169.135 56.4432 168.931 56.3441C168.727 56.2451 168.558 56.0928 168.424 55.8874C168.293 55.6778 168.209 55.4303 168.174 55.145C168.139 54.856 168.16 54.5958 168.237 54.3644C168.317 54.1326 168.444 53.9439 168.618 53.7985C168.792 53.653 169.004 53.565 169.252 53.5345C169.485 53.5058 169.697 53.542 169.886 53.6429C170.079 53.7433 170.237 53.8969 170.36 54.1037C170.483 54.3105 170.562 54.5584 170.598 54.8474C170.633 55.1328 170.616 55.3925 170.547 55.6267C170.477 55.8571 170.361 56.0444 170.198 56.1885C170.039 56.3322 169.843 56.4184 169.609 56.447ZM169.66 56.029C169.823 56.009 169.962 55.9468 170.077 55.8424C170.192 55.738 170.275 55.6018 170.326 55.4338C170.38 55.2654 170.395 55.0792 170.37 54.8754C170.345 54.6716 170.286 54.4946 170.192 54.3444C170.102 54.1937 169.988 54.0816 169.852 54.0081C169.715 53.9347 169.563 53.9082 169.396 53.9287C169.222 53.95 169.072 54.0136 168.946 54.1194C168.823 54.2247 168.733 54.3618 168.674 54.5307C168.616 54.6996 168.6 54.8859 168.625 55.0897C168.65 55.2935 168.711 55.4703 168.808 55.6201C168.906 55.7699 169.028 55.8808 169.176 55.9529C169.324 56.025 169.485 56.0504 169.66 56.029ZM173.475 55.9047L173.397 55.4516L173.273 54.44C173.246 54.2214 173.2 54.0447 173.134 53.9098C173.068 53.7712 172.979 53.6712 172.866 53.6098C172.753 53.5484 172.613 53.528 172.447 53.5485C172.295 53.5671 172.167 53.6148 172.064 53.6914C171.963 53.7639 171.886 53.8712 171.832 54.0132L171.413 53.9067C171.467 53.7684 171.539 53.6467 171.628 53.5418C171.716 53.4332 171.824 53.3466 171.951 53.282C172.078 53.2138 172.227 53.1692 172.397 53.1483C172.657 53.1164 172.876 53.1421 173.056 53.2254C173.238 53.3045 173.385 53.4389 173.495 53.6285C173.604 53.8145 173.675 54.054 173.707 54.3472L173.886 55.8542L173.475 55.9047ZM172.649 56.0738C172.323 56.1138 172.059 56.0711 171.855 55.9456C171.655 55.816 171.538 55.6178 171.506 55.351C171.471 55.0694 171.537 54.8431 171.704 54.6721C171.875 54.497 172.128 54.3887 172.466 54.3473L173.26 54.2497L173.306 54.6221L172.611 54.7074C172.352 54.7393 172.172 54.8046 172.071 54.9035C171.974 55.0019 171.936 55.1308 171.955 55.2901C171.973 55.4346 172.041 55.5429 172.159 55.615C172.276 55.6833 172.431 55.7056 172.624 55.682C172.783 55.6624 172.918 55.612 173.028 55.5307C173.138 55.4458 173.217 55.3364 173.265 55.2027C173.315 55.0648 173.33 54.9088 173.309 54.7346L173.498 54.7114C173.544 55.0894 173.496 55.4019 173.353 55.6488C173.21 55.8921 172.976 56.0337 172.649 56.0738ZM174.948 56.92C174.877 56.9286 174.794 56.9238 174.698 56.9055C174.602 56.891 174.499 56.8678 174.39 56.8361L174.511 56.4432C174.601 56.4698 174.679 56.4885 174.744 56.4993C174.813 56.5096 174.866 56.5125 174.903 56.508C175.003 56.4957 175.081 56.4579 175.137 56.3946C175.198 56.3345 175.244 56.2517 175.276 56.1462L175.5 55.3514L176.224 52.7461L176.702 52.6875L175.757 56.0194C175.707 56.1911 175.65 56.341 175.586 56.4692C175.527 56.5969 175.447 56.6988 175.348 56.775C175.248 56.8512 175.115 56.8995 174.948 56.92ZM175.415 55.6665L173.873 53.0348L174.345 52.9768L175.683 55.3233L175.854 55.6126L175.415 55.6665Z" fill="#083347"/>
</g>
<rect x="141.303" y="40.007" width="54.8" height="25.2" rx="6" transform="rotate(-7 141.303 40.007)" stroke="#007F70" stroke-width="0.8"/>
<g clip-path="url(#clip4_1_363)">
<rect x="199.219" y="32.4929" width="55.6" height="26" rx="6.4" transform="rotate(-7 199.219 32.4929)" fill="#2A20BC" fill-opacity="0.1"/>
<path d="M220.393 41.4793L219.71 35.9211L223.133 35.5009L223.236 36.3426L220.735 36.6497L220.916 38.1266L223.123 37.8555L223.225 38.6813L221.017 38.9524L221.21 40.5246L223.736 40.2145L223.839 41.0562L220.393 41.4793ZM227.331 40.6274L227.2 39.8859L227.041 38.5916C227.008 38.3216 226.951 38.1002 226.871 37.9274C226.795 37.7486 226.688 37.6194 226.549 37.5397C226.415 37.4541 226.245 37.4239 226.038 37.4493C225.848 37.4727 225.686 37.5328 225.553 37.6298C225.42 37.7268 225.313 37.8661 225.233 38.0478L224.42 37.8575C224.483 37.6724 224.575 37.4973 224.694 37.3322C224.818 37.1612 224.981 37.0176 225.181 36.9016C225.387 36.785 225.641 36.7082 225.943 36.6711C226.329 36.6237 226.662 36.6608 226.94 36.7824C227.217 36.8988 227.434 37.0898 227.591 37.3554C227.752 37.6204 227.857 37.9514 227.906 38.3484L228.149 40.527L227.331 40.6274ZM226.2 40.8631C225.723 40.9216 225.34 40.8612 225.049 40.6819C224.764 40.5021 224.597 40.2189 224.55 39.8325C224.499 39.4196 224.598 39.0877 224.847 38.8369C225.101 38.5854 225.476 38.4291 225.974 38.368L227.038 38.2373L227.122 38.9202L226.344 39.0158C225.989 39.0593 225.746 39.1401 225.616 39.2583C225.485 39.3711 225.43 39.5175 225.452 39.6975C225.471 39.851 225.547 39.9653 225.68 40.0403C225.817 40.1094 225.997 40.1303 226.219 40.103C226.42 40.0783 226.59 40.0119 226.727 39.9037C226.864 39.7955 226.963 39.6624 227.024 39.5045C227.091 39.3458 227.113 39.1739 227.09 38.9886L227.352 38.9564C227.418 39.4964 227.362 39.9358 227.183 40.2748C227.004 40.6085 226.676 40.8046 226.2 40.8631ZM230.53 40.3313C230.266 40.3638 230.017 40.354 229.785 40.3019C229.553 40.2498 229.349 40.162 229.173 40.0386C228.996 39.9099 228.853 39.7528 228.744 39.5673L229.472 39.1313C229.57 39.2698 229.702 39.3799 229.868 39.4616C230.039 39.5427 230.22 39.5715 230.41 39.5481C230.617 39.5228 230.776 39.4682 230.89 39.3845C231.008 39.2948 231.059 39.1864 231.043 39.0593C231.028 38.9376 230.969 38.8508 230.866 38.799C230.762 38.7419 230.621 38.7028 230.441 38.6819L230.055 38.6245C229.667 38.5754 229.355 38.4606 229.118 38.2802C228.88 38.0944 228.745 37.8666 228.712 37.5966C228.663 37.1996 228.752 36.8769 228.98 36.6287C229.212 36.3798 229.57 36.2258 230.051 36.1667C230.295 36.1368 230.522 36.1465 230.732 36.1959C230.947 36.2394 231.137 36.3182 231.301 36.4323C231.465 36.5412 231.587 36.6794 231.666 36.8469L230.969 37.2711C230.9 37.1452 230.787 37.057 230.63 37.0064C230.473 36.9505 230.304 36.9336 230.124 36.9557C229.944 36.9778 229.809 37.0347 229.718 37.1265C229.626 37.2129 229.589 37.325 229.606 37.4626C229.616 37.542 229.67 37.6106 229.768 37.6684C229.866 37.7208 230.002 37.7578 230.177 37.7794L230.659 37.833C230.926 37.8647 231.15 37.9393 231.331 38.0568C231.512 38.169 231.652 38.3049 231.752 38.4645C231.852 38.6189 231.912 38.7807 231.933 38.9501C231.962 39.1884 231.919 39.4059 231.803 39.6028C231.693 39.799 231.528 39.9617 231.307 40.0909C231.086 40.2148 230.827 40.2949 230.53 40.3313ZM233.606 41.5657C233.479 41.5813 233.333 41.575 233.169 41.5468C233.009 41.518 232.854 41.4754 232.702 41.4188L232.947 40.6553C233.053 40.6906 233.15 40.7163 233.238 40.7323C233.327 40.7537 233.397 40.7611 233.45 40.7546C233.577 40.739 233.679 40.6916 233.755 40.6124C233.838 40.5378 233.897 40.4338 233.935 40.3002L234.269 39.1469L235.199 35.6313L236.168 35.5124L234.865 40.1296C234.785 40.3973 234.698 40.6336 234.605 40.8385C234.517 41.0427 234.395 41.2055 234.238 41.3269C234.082 41.4536 233.871 41.5332 233.606 41.5657ZM234.106 39.7955L231.84 36.0437L232.809 35.9248L234.601 39.098L234.964 39.6902L234.106 39.7955Z" fill="#001F2E"/>
<path d="M222.328 49.974C222.139 49.9972 221.963 49.9906 221.801 49.9541C221.641 49.9135 221.501 49.8537 221.378 49.7747C221.259 49.6952 221.162 49.6075 221.086 49.5115L221.449 49.2469C221.496 49.2938 221.553 49.347 221.621 49.4064C221.691 49.4616 221.778 49.5056 221.879 49.5382C221.981 49.5709 222.102 49.5785 222.243 49.5612C222.495 49.5303 222.688 49.4333 222.822 49.2701C222.957 49.1069 223.01 48.916 222.984 48.6974C222.963 48.5306 222.899 48.3955 222.793 48.292C222.69 48.1881 222.549 48.1169 222.372 48.0786C222.194 48.0402 221.986 48.0356 221.749 48.0647L221.644 48.0777L221.599 47.7108L221.693 47.6992C221.926 47.6706 222.145 47.6701 222.347 47.6979C222.55 47.7256 222.73 47.7807 222.887 47.863C223.047 47.9448 223.175 48.0532 223.271 48.1882C223.37 48.3227 223.431 48.4844 223.454 48.6734C223.483 48.9032 223.45 49.1122 223.357 49.3004C223.266 49.4845 223.131 49.6366 222.95 49.7566C222.769 49.8729 222.561 49.9454 222.328 49.974ZM221.639 48.0388L221.594 47.6775L221.7 47.6645C222.019 47.6254 222.264 47.5407 222.436 47.4105C222.612 47.2761 222.687 47.107 222.662 46.9032C222.648 46.7921 222.606 46.6938 222.535 46.6085C222.464 46.5194 222.368 46.4541 222.246 46.4126C222.128 46.367 221.994 46.3533 221.846 46.3715C221.746 46.3838 221.653 46.4102 221.568 46.4508C221.486 46.4872 221.411 46.5377 221.344 46.6024C221.28 46.6629 221.223 46.7376 221.174 46.8264L220.781 46.6602C220.838 46.5367 220.914 46.4257 221.011 46.3273C221.112 46.2284 221.23 46.1463 221.365 46.0808C221.499 46.0153 221.65 45.9724 221.817 45.9519C222.043 45.9241 222.25 45.9438 222.439 46.0109C222.632 46.0775 222.789 46.1823 222.912 46.3252C223.035 46.4644 223.108 46.6303 223.131 46.823C223.151 46.986 223.13 47.1353 223.068 47.2709C223.006 47.4064 222.909 47.5273 222.78 47.6335C222.653 47.7393 222.5 47.8258 222.321 47.893C222.144 47.956 221.948 48.0008 221.733 48.0272L221.639 48.0388ZM227.667 49.2508L227.581 48.7366L227.167 45.3627L227.611 45.3081L228.089 49.1989L227.667 49.2508ZM226.713 49.4355C226.465 49.466 226.239 49.4317 226.035 49.3327C225.831 49.2336 225.662 49.0813 225.528 48.8759C225.396 48.6663 225.313 48.4188 225.278 48.1335C225.243 47.8445 225.264 47.5843 225.341 47.3529C225.421 47.1211 225.548 46.9325 225.722 46.787C225.896 46.6415 226.107 46.5535 226.356 46.523C226.589 46.4944 226.8 46.5305 226.99 46.6314C227.183 46.7318 227.341 46.8854 227.464 47.0922C227.587 47.299 227.666 47.5469 227.702 47.836C227.737 48.1213 227.72 48.381 227.651 48.6152C227.581 48.8456 227.465 49.0329 227.302 49.177C227.143 49.3207 226.947 49.4069 226.713 49.4355ZM226.764 49.0175C226.927 48.9975 227.066 48.9353 227.181 48.8309C227.296 48.7265 227.379 48.5903 227.43 48.4223C227.484 48.2539 227.499 48.0677 227.474 47.8639C227.449 47.6601 227.39 47.4831 227.296 47.3329C227.206 47.1822 227.092 47.0701 226.956 46.9966C226.819 46.9232 226.667 46.8967 226.5 46.9172C226.326 46.9385 226.176 47.0021 226.05 47.1079C225.927 47.2132 225.837 47.3503 225.778 47.5192C225.72 47.6881 225.704 47.8744 225.729 48.0782C225.754 48.282 225.815 48.4588 225.912 48.6086C226.01 48.7584 226.132 48.8693 226.28 48.9414C226.428 49.0135 226.589 49.0389 226.764 49.0175ZM230.579 48.8932L230.501 48.4402L230.377 47.4286C230.35 47.2099 230.304 47.0332 230.238 46.8983C230.172 46.7597 230.083 46.6597 229.97 46.5983C229.857 46.5369 229.717 46.5165 229.55 46.537C229.399 46.5556 229.271 46.6033 229.167 46.6799C229.067 46.7524 228.99 46.8597 228.936 47.0017L228.517 46.8952C228.571 46.7569 228.643 46.6352 228.732 46.5303C228.82 46.4217 228.928 46.3351 229.055 46.2706C229.182 46.2023 229.331 46.1577 229.501 46.1368C229.761 46.1049 229.98 46.1306 230.16 46.2139C230.342 46.293 230.489 46.4274 230.598 46.6171C230.708 46.803 230.779 47.0425 230.811 47.3357L230.99 48.8427L230.579 48.8932ZM229.753 49.0623C229.427 49.1023 229.163 49.0596 228.959 48.9341C228.759 48.8045 228.642 48.6063 228.61 48.3395C228.575 48.0579 228.641 47.8316 228.808 47.6606C228.979 47.4855 229.232 47.3772 229.57 47.3358L230.364 47.2382L230.41 47.6106L229.715 47.6959C229.456 47.7278 229.276 47.7931 229.175 47.892C229.078 47.9904 229.04 48.1193 229.059 48.2786C229.077 48.4232 229.145 48.5314 229.263 48.6035C229.38 48.6718 229.535 48.6941 229.728 48.6705C229.887 48.6509 230.022 48.6005 230.132 48.5192C230.242 48.4343 230.321 48.3249 230.369 48.1912C230.419 48.0533 230.434 47.8973 230.413 47.7231L230.602 47.6999C230.648 48.0779 230.6 48.3904 230.457 48.6373C230.314 48.8806 230.079 49.0222 229.753 49.0623ZM232.052 49.9085C231.981 49.9171 231.898 49.9123 231.802 49.894C231.706 49.8795 231.603 49.8563 231.494 49.8246L231.615 49.4317C231.705 49.4583 231.783 49.477 231.848 49.4878C231.917 49.4981 231.97 49.501 232.007 49.4965C232.107 49.4842 232.185 49.4464 232.241 49.3831C232.301 49.323 232.348 49.2402 232.38 49.1347L232.604 48.3399L233.328 45.7347L233.806 45.676L232.861 49.008C232.81 49.1796 232.754 49.3296 232.69 49.4577C232.631 49.5854 232.551 49.6873 232.451 49.7635C232.352 49.8397 232.219 49.888 232.052 49.9085ZM232.518 48.6551L230.977 46.0233L231.449 45.9653L232.787 48.3118L232.958 48.6011L232.518 48.6551ZM235.564 48.3489C235.36 48.3739 235.178 48.3661 235.019 48.3255C234.859 48.2811 234.722 48.2153 234.605 48.128C234.493 48.0402 234.407 47.9398 234.348 47.8267L234.718 47.6177C234.796 47.736 234.903 47.8263 235.039 47.8886C235.174 47.9509 235.318 47.9728 235.47 47.9541C235.644 47.9328 235.786 47.8814 235.897 47.8002C236.007 47.7152 236.054 47.6097 236.038 47.4838C236.024 47.3689 235.968 47.2817 235.871 47.2222C235.777 47.1623 235.642 47.1205 235.466 47.097L235.191 47.0575C234.93 47.0217 234.722 46.9458 234.565 46.8297C234.407 46.7099 234.318 46.5647 234.297 46.3943C234.264 46.1312 234.325 45.9169 234.477 45.7515C234.633 45.5819 234.882 45.4762 235.223 45.4343C235.386 45.4143 235.537 45.4202 235.676 45.452C235.815 45.4838 235.939 45.5382 236.046 45.6153C236.153 45.6887 236.236 45.782 236.295 45.8951L235.927 46.1152C235.863 45.9951 235.772 45.9141 235.654 45.8721C235.536 45.8302 235.398 45.819 235.238 45.8386C235.068 45.8595 234.939 45.913 234.852 45.9989C234.764 46.0811 234.728 46.1871 234.744 46.3168C234.753 46.3909 234.801 46.4565 234.887 46.5137C234.976 46.5666 235.101 46.604 235.262 46.6256L235.548 46.6638C235.735 46.6859 235.896 46.734 236.029 46.8079C236.162 46.8781 236.266 46.9649 236.343 47.0684C236.42 47.1718 236.466 47.2865 236.481 47.4125C236.502 47.5792 236.475 47.7292 236.401 47.8624C236.327 47.9956 236.218 48.1049 236.074 48.1902C235.93 48.2719 235.76 48.3248 235.564 48.3489Z" fill="#083347"/>
</g>
<rect x="199.664" y="32.8411" width="54.8" height="25.2" rx="6" transform="rotate(-7 199.664 32.8411)" stroke="#2A20BC" stroke-width="0.8"/>
</g>
</g>
<defs>
<filter id="filter0_d_1_363" x="-0.486597" y="-0.106409" width="281.091" height="113.921" filterUnits="userSpaceOnUse" color-interpolation-filters="sRGB">
<feFlood flood-opacity="0" result="BackgroundImageFix"/>
<feColorMatrix in="SourceAlpha" type="matrix" values="0 0 0 0 0 0 0 0 0 0 0 0 0 0 0 0 0 0 127 0" result="hardAlpha"/>
<feMorphology radius="1.6" operator="dilate" in="SourceAlpha" result="effect1_dropShadow_1_363"/>
<feOffset dy="4"/>
<feGaussianBlur stdDeviation="4"/>
<feComposite in2="hardAlpha" operator="out"/>
<feColorMatrix type="matrix" values="0 0 0 0 0 0 0 0 0 0 0 0 0 0 0 0 0 0 0.1 0"/>
<feBlend mode="normal" in2="BackgroundImageFix" result="effect1_dropShadow_1_363"/>
<feBlend mode="normal" in="SourceGraphic" in2="effect1_dropShadow_1_363" result="shape"/>
</filter>
<clipPath id="clip0_1_363">
<rect x="9.1134" y="36.6921" width="256" height="64" rx="8" transform="rotate(-7 9.1134 36.6921)" fill="white"/>
</clipPath>
<clipPath id="clip1_1_363">
<rect x="24.1335" y="53.9906" width="55.6" height="26" rx="6.4" transform="rotate(-7 24.1335 53.9906)" fill="white"/>
</clipPath>
<clipPath id="clip2_1_363">
<rect x="82.4952" y="46.8247" width="55.6" height="26" rx="6.4" transform="rotate(-7 82.4952 46.8247)" fill="white"/>
</clipPath>
<clipPath id="clip3_1_363">
<rect x="140.857" y="39.6588" width="55.6" height="26" rx="6.4" transform="rotate(-7 140.857 39.6588)" fill="white"/>
</clipPath>
<clipPath id="clip4_1_363">
<rect x="199.219" y="32.4929" width="55.6" height="26" rx="6.4" transform="rotate(-7 199.219 32.4929)" fill="white"/>
</clipPath>
</defs>
</svg>
