<svg width="133" height="114" viewBox="0 0 133 114" fill="none" xmlns="http://www.w3.org/2000/svg">
<g filter="url(#filter0_d_1_511)">
<g clip-path="url(#clip0_1_511)">
<rect x="9.48669" y="36.8123" width="256" height="64" rx="8" transform="rotate(-7 9.48669 36.8123)" fill="white"/>
<g clip-path="url(#clip1_1_511)">
<rect x="24.5068" y="54.1108" width="55.6" height="26" rx="6.4" transform="rotate(-7 24.5068 54.1108)" fill="#FBC02D" fill-opacity="0.1"/>
<path d="M47.788 62.8386L44.9378 57.5465L45.8589 57.4334L48.7646 62.7186L47.788 62.8386ZM43.3493 63.3836L44.8822 57.5533L45.8112 57.4392L44.326 63.2636L43.3493 63.3836ZM44.2218 61.8901L44.1214 61.0722L47.4484 60.6637L47.5488 61.4816L44.2218 61.8901ZM51.1673 64.1404C50.8867 64.1749 50.6297 64.1823 50.3962 64.1626C50.168 64.1422 49.9733 64.1097 49.812 64.065C49.6507 64.0204 49.5241 63.9741 49.4322 63.9263L49.6859 63.1697C49.7646 63.1977 49.868 63.2307 49.9963 63.2686C50.1305 63.3113 50.2849 63.3434 50.4595 63.3649C50.6341 63.3865 50.8272 63.3842 51.039 63.3582C51.2666 63.3303 51.4646 63.2576 51.6328 63.1402C51.8018 63.0282 51.9248 62.8706 52.002 62.6677C52.0792 62.4648 52.0996 62.2151 52.0632 61.9187L51.6235 58.3376L52.5128 58.2284L52.9496 61.7857C53.0048 62.2356 52.9669 62.6272 52.8359 62.9603C52.7055 63.2987 52.4965 63.5662 52.209 63.7627C51.9221 63.9645 51.5749 64.0904 51.1673 64.1404ZM50.8149 62.3863C50.4549 62.4305 50.1299 62.3871 49.8397 62.2562C49.5549 62.1246 49.3179 61.9226 49.1286 61.6503C48.944 61.3721 48.8279 61.0397 48.7805 60.6533C48.7298 60.2404 48.76 59.874 48.8712 59.5541C48.9877 59.2335 49.1678 58.9722 49.4117 58.7704C49.6609 58.5678 49.9655 58.4444 50.3254 58.4002C50.6483 58.3606 50.9393 58.4108 51.1983 58.551C51.4626 58.6905 51.6798 58.9056 51.8498 59.1964C52.0192 59.4819 52.1293 59.8311 52.18 60.244C52.228 60.6357 52.2038 60.9853 52.1072 61.2927C52.0106 61.6001 51.8506 61.8508 51.6273 62.0448C51.4086 62.2328 51.1378 62.3467 50.8149 62.3863ZM50.9684 61.6017C51.1695 61.5771 51.3377 61.5027 51.473 61.3786C51.6135 61.2539 51.715 61.0963 51.7776 60.9059C51.8396 60.7103 51.8559 60.4933 51.8267 60.2551C51.7968 60.0116 51.7284 59.8051 51.6216 59.6355C51.5142 59.4606 51.3775 59.3323 51.2117 59.2506C51.0452 59.1636 50.8613 59.1324 50.6602 59.1571C50.4484 59.1831 50.267 59.2591 50.1159 59.3851C49.9694 59.5052 49.8599 59.6637 49.7874 59.8607C49.7195 60.0517 49.7005 60.269 49.7304 60.5125C49.7597 60.7507 49.8307 60.9569 49.9434 61.1312C50.0608 61.2994 50.208 61.4264 50.3851 61.5122C50.5622 61.5979 50.7566 61.6277 50.9684 61.6017ZM56.4043 61.7806L56.273 61.0391L56.1141 59.7448C56.0809 59.4748 56.0242 59.2534 55.9439 59.0806C55.8682 58.9018 55.761 58.7726 55.6222 58.6929C55.4881 58.6073 55.3178 58.5771 55.1114 58.6025C54.9208 58.6259 54.7589 58.6861 54.6258 58.783C54.4926 58.88 54.3861 59.0193 54.3063 59.2011L53.4931 59.0108C53.5563 58.8257 53.6477 58.6506 53.7671 58.4854C53.8912 58.3144 54.0536 58.1709 54.2543 58.0549C54.4602 57.9382 54.7141 57.8614 55.0158 57.8243C55.4023 57.7769 55.7346 57.814 56.0128 57.9357C56.2904 58.052 56.5073 58.243 56.6635 58.5086C56.825 58.7736 56.9301 59.1046 56.9789 59.5016L57.2222 61.6802L56.4043 61.7806ZM55.2726 62.0163C54.7962 62.0748 54.4126 62.0144 54.122 61.8352C53.8366 61.6553 53.6702 61.3721 53.6227 60.9857C53.572 60.5728 53.671 60.2409 53.9196 59.9901C54.1735 59.7386 54.5493 59.5823 55.0469 59.5212L56.1109 59.3906L56.1947 60.0734L55.4166 60.169C55.0619 60.2125 54.8193 60.2934 54.6887 60.4115C54.5575 60.5243 54.5029 60.6707 54.525 60.8507C54.5438 61.0042 54.6197 61.1185 54.7525 61.1935C54.8899 61.2626 55.0698 61.2835 55.2921 61.2562C55.4933 61.2315 55.6625 61.1651 55.7996 61.0569C55.9368 60.9487 56.036 60.8156 56.0972 60.6577C56.1637 60.499 56.1856 60.3271 56.1628 60.1418L56.4248 60.1097C56.4911 60.6496 56.4349 61.0891 56.2563 61.428C56.0769 61.7617 55.749 61.9578 55.2726 62.0163ZM58.2021 61.5599L57.7147 57.5897L58.596 57.4815L59.0835 61.4516L58.2021 61.5599ZM58.0667 56.7807C57.9238 56.7983 57.7932 56.7633 57.675 56.6757C57.5614 56.5822 57.4958 56.464 57.4783 56.321C57.4607 56.1781 57.4961 56.0502 57.5843 55.9372C57.6778 55.8237 57.7961 55.7581 57.939 55.7406C58.0819 55.723 58.2098 55.7583 58.3228 55.8466C58.441 55.9342 58.5089 56.0494 58.5264 56.1923C58.544 56.3353 58.5063 56.4662 58.4134 56.585C58.3252 56.698 58.2096 56.7632 58.0667 56.7807ZM60.1317 61.323L59.6442 57.3528L60.4779 57.2504L60.6232 57.9741L61.021 61.2138L60.1317 61.323ZM62.8234 60.9924L62.5738 58.9597L63.4632 58.8505L63.7128 60.8832L62.8234 60.9924ZM62.5738 58.9597C62.5349 58.6421 62.4679 58.4031 62.373 58.2428C62.2827 58.0766 62.1672 57.9672 62.0264 57.9146C61.8909 57.8614 61.7358 57.8455 61.5611 57.867C61.264 57.8981 61.0458 58.0243 60.9064 58.2456C60.767 58.4669 60.7204 58.7655 60.7665 59.1413L60.433 59.1823C60.3817 58.7641 60.3987 58.3993 60.484 58.0879C60.5687 57.7712 60.7155 57.5221 60.9242 57.3407C61.1324 57.1539 61.3926 57.0414 61.7049 57.003C62.0225 56.964 62.3003 56.9944 62.5382 57.0941C62.7815 57.1932 62.9779 57.3706 63.1275 57.6263C63.2817 57.876 63.3852 58.2153 63.4378 58.6441L63.4632 58.8505L62.5738 58.9597Z" fill="#001F2E"/>
<path d="M49.5023 71.2927L49.0552 67.652L49.0634 67.3971L49.4859 67.3452L49.9636 71.236L49.5023 71.2927ZM48.2747 68.5095L48.2222 68.0815C48.3004 68.0757 48.3899 68.0384 48.4905 67.9696C48.5912 67.9008 48.6935 67.8149 48.7974 67.7119C48.9014 67.6088 48.99 67.5039 49.0634 67.3971L49.3914 67.6784C49.285 67.8231 49.1715 67.9556 49.0508 68.0757C48.9302 68.1958 48.8052 68.2958 48.6758 68.3756C48.546 68.4518 48.4123 68.4964 48.2747 68.5095ZM52.3545 70.9424L52.0133 68.1633L52.4301 68.1121L52.5002 68.4985C52.5672 68.3398 52.6626 68.2134 52.7865 68.1192C52.9103 68.025 53.0612 67.967 53.239 67.9451C53.4614 67.9178 53.6567 67.9465 53.8251 68.0311C53.9971 68.1153 54.1314 68.2587 54.2277 68.4613C54.2805 68.2479 54.3744 68.0784 54.5094 67.9527C54.6482 67.8266 54.8213 67.7508 55.0288 67.7254C55.34 67.6871 55.5973 67.7609 55.8007 67.9465C56.0077 68.1317 56.1353 68.4358 56.1835 68.8587L56.3787 70.4483L55.934 70.5029L55.7593 69.08C55.7256 68.8058 55.6703 68.6001 55.5933 68.4629C55.5199 68.3252 55.4319 68.2363 55.3292 68.1963C55.226 68.1525 55.1115 68.1384 54.9855 68.1538C54.7669 68.1807 54.6071 68.2887 54.5062 68.4779C54.4048 68.6633 54.3735 68.9135 54.4122 69.2285L54.5889 70.6681L54.1443 70.7227L53.9696 69.2998C53.9359 69.0256 53.8805 68.8199 53.8035 68.6826C53.7302 68.5449 53.6403 68.4563 53.5339 68.4167C53.4307 68.3729 53.3161 68.3588 53.1902 68.3743C52.9752 68.4007 52.8173 68.5084 52.7164 68.6976C52.6151 68.8831 52.5837 69.1333 52.6224 69.4483L52.7992 70.8879L52.3545 70.9424ZM57.1101 70.3585L56.7688 67.5794L57.2135 67.5248L57.5547 70.3039L57.1101 70.3585ZM56.9176 66.9067C56.8435 66.9158 56.7752 66.8959 56.7128 66.8472C56.6504 66.7984 56.6146 66.737 56.6055 66.6629C56.596 66.5851 56.6158 66.5168 56.665 66.4581C56.7138 66.3957 56.7752 66.3599 56.8493 66.3508C56.9271 66.3413 56.9954 66.3611 57.0541 66.4103C57.116 66.4554 57.1518 66.5168 57.1614 66.5946C57.1705 66.6687 57.1506 66.737 57.1019 66.7994C57.0568 66.8614 56.9954 66.8971 56.9176 66.9067ZM58.3741 70.2033L58.0329 67.4242L58.4498 67.373L58.5404 67.881L58.8188 70.1487L58.3741 70.2033ZM60.3251 69.9638L60.1504 68.5409L60.595 68.4863L60.7698 69.9092L60.3251 69.9638ZM60.1504 68.5409C60.1167 68.2667 60.0595 68.0612 59.9788 67.9244C59.898 67.7876 59.7989 67.7001 59.6814 67.6619C59.5634 67.6199 59.434 67.6076 59.2932 67.6249C59.0486 67.6549 58.8685 67.7655 58.7527 67.9564C58.6403 68.1433 58.6034 68.3942 58.6421 68.7091L58.4253 68.7358C58.3893 68.443 58.401 68.1858 58.4603 67.9641C58.5196 67.7425 58.6239 67.566 58.7733 67.4348C58.9227 67.3037 59.1123 67.224 59.342 67.1958C59.5607 67.1689 59.7551 67.1902 59.9254 67.2595C60.0989 67.3248 60.2417 67.4464 60.3538 67.6244C60.4697 67.8021 60.5446 68.0449 60.5787 68.3529L60.595 68.4863L60.1504 68.5409Z" fill="#083347"/>
</g>
<rect x="24.9526" y="54.459" width="54.8" height="25.2" rx="6" transform="rotate(-7 24.9526 54.459)" stroke="#FBC02D" stroke-width="0.8"/>
<g clip-path="url(#clip2_1_511)">
<rect x="82.8685" y="46.9449" width="55.6" height="26" rx="6.4" transform="rotate(-7 82.8685 46.9449)" fill="#E53935" fill-opacity="0.1"/>
<path d="M107.451 56.0166L106.769 50.4583L107.69 50.3452L108.372 55.9035L107.451 56.0166ZM103.735 56.4729L103.053 50.9146L103.974 50.8015L104.656 56.3598L103.735 56.4729ZM104.159 53.9544L104.056 53.1127L107.423 52.6993L107.526 53.541L104.159 53.9544ZM111.946 55.4648L111.814 54.7233L111.655 53.429C111.622 53.159 111.565 52.9376 111.485 52.7648C111.409 52.586 111.302 52.4568 111.163 52.3771C111.029 52.2914 110.859 52.2613 110.653 52.2867C110.462 52.3101 110.3 52.3702 110.167 52.4672C110.034 52.5641 109.927 52.7035 109.848 52.8852L109.034 52.6949C109.098 52.5098 109.189 52.3347 109.308 52.1696C109.432 51.9985 109.595 51.855 109.795 51.739C110.001 51.6224 110.255 51.5455 110.557 51.5085C110.943 51.4611 111.276 51.4982 111.554 51.6198C111.832 51.7362 112.048 51.9272 112.205 52.1928C112.366 52.4578 112.471 52.7887 112.52 53.1858L112.763 55.3644L111.946 55.4648ZM110.814 55.7005C110.337 55.7589 109.954 55.6986 109.663 55.5193C109.378 55.3394 109.211 55.0563 109.164 54.6698C109.113 54.2569 109.212 53.9251 109.461 53.6742C109.715 53.4228 110.09 53.2665 110.588 53.2054L111.652 53.0747L111.736 53.7576L110.958 53.8531C110.603 53.8967 110.36 53.9775 110.23 54.0957C110.099 54.2085 110.044 54.3549 110.066 54.5349C110.085 54.6884 110.161 54.8027 110.294 54.8777C110.431 54.9468 110.611 54.9677 110.833 54.9404C111.034 54.9157 111.204 54.8493 111.341 54.7411C111.478 54.6329 111.577 54.4998 111.638 54.3418C111.705 54.1832 111.727 54.0113 111.704 53.826L111.966 53.7938C112.032 54.3338 111.976 54.7732 111.797 55.1122C111.618 55.4459 111.29 55.642 110.814 55.7005ZM114.016 53.0666C113.963 52.6378 114.002 52.2757 114.132 51.9803C114.263 51.6849 114.449 51.4551 114.693 51.2909C114.94 51.1207 115.207 51.0181 115.493 50.983L115.597 51.8326C115.354 51.8625 115.128 51.9252 114.919 52.0207C114.715 52.1102 114.556 52.2372 114.442 52.4017C114.328 52.5661 114.286 52.7701 114.316 53.0136L114.016 53.0666ZM113.688 55.2509L113.2 51.2807L114.09 51.1715L114.577 55.1417L113.688 55.2509ZM119.439 54.5447L119.308 53.8111L118.717 48.9913L119.598 48.8831L120.28 54.4414L119.439 54.5447ZM118.156 54.7989C117.796 54.8431 117.471 54.7971 117.18 54.6608C116.894 54.5187 116.655 54.3008 116.463 54.0074C116.277 53.7132 116.158 53.3571 116.106 52.9389C116.054 52.5154 116.084 52.141 116.194 51.8158C116.309 51.4846 116.489 51.2181 116.733 51.0162C116.981 50.8084 117.285 50.6824 117.645 50.6382C117.979 50.5972 118.275 50.6495 118.535 50.7949C118.799 50.9344 119.014 51.1525 119.18 51.4492C119.344 51.7407 119.453 52.0981 119.505 52.5216C119.556 52.9398 119.537 53.3128 119.449 53.6408C119.36 53.9687 119.205 54.2349 118.983 54.4395C118.765 54.6382 118.49 54.758 118.156 54.7989ZM118.279 53.9617C118.48 53.937 118.651 53.8623 118.792 53.7376C118.937 53.6069 119.04 53.4411 119.101 53.2401C119.168 53.0385 119.186 52.8133 119.155 52.5645C119.125 52.3157 119.053 52.1015 118.939 51.922C118.831 51.7418 118.691 51.6086 118.52 51.5222C118.353 51.4352 118.167 51.4043 117.96 51.4297C117.748 51.4557 117.567 51.5317 117.416 51.6577C117.265 51.7837 117.153 51.9479 117.081 52.1502C117.015 52.3518 116.994 52.5773 117.019 52.8268C117.055 53.0749 117.13 53.2887 117.243 53.4683C117.362 53.6471 117.51 53.7821 117.688 53.8731C117.87 53.9582 118.067 53.9877 118.279 53.9617Z" fill="#001F2E"/>
<path d="M104.749 65.013L104.302 61.3723L104.31 61.1174L104.732 61.0656L105.21 64.9564L104.749 65.013ZM103.521 62.2299L103.469 61.8019C103.547 61.796 103.636 61.7587 103.737 61.6899C103.838 61.6212 103.94 61.5352 104.044 61.4322C104.148 61.3292 104.236 61.2242 104.31 61.1174L104.638 61.3988C104.531 61.5435 104.418 61.6759 104.297 61.796C104.177 61.9162 104.052 62.0161 103.922 62.096C103.792 62.1721 103.659 62.2167 103.521 62.2299ZM107.459 64.748C107.303 64.7671 107.141 64.7644 106.972 64.74C106.807 64.7113 106.646 64.6577 106.49 64.5791C106.337 64.5001 106.206 64.3903 106.094 64.2497L106.446 63.9866C106.595 64.1337 106.751 64.235 106.912 64.2904C107.073 64.3459 107.235 64.3636 107.398 64.3436C107.653 64.3122 107.851 64.2089 107.992 64.0337C108.135 63.8543 108.191 63.6368 108.16 63.3811C108.129 63.1292 108.026 62.9331 107.851 62.7928C107.675 62.6526 107.462 62.598 107.21 62.6289C107.073 62.6457 106.941 62.6938 106.816 62.7732C106.69 62.8489 106.595 62.9357 106.532 63.0338L106.097 62.9856L106.033 60.9058L108.107 60.6513L108.159 61.0737L106.502 61.2771L106.538 62.5309C106.634 62.4552 106.742 62.391 106.864 62.3385C106.985 62.286 107.111 62.2517 107.241 62.2358C107.478 62.2067 107.695 62.2326 107.893 62.3137C108.091 62.3947 108.255 62.5212 108.386 62.6933C108.516 62.8654 108.596 63.0718 108.625 63.3127C108.656 63.5647 108.626 63.794 108.535 64.0008C108.447 64.2035 108.309 64.3708 108.123 64.5028C107.939 64.6344 107.718 64.7161 107.459 64.748ZM110.798 64.2702L110.457 61.4911L110.874 61.4399L110.944 61.8263C111.011 61.6676 111.106 61.5411 111.23 61.4469C111.354 61.3528 111.505 61.2947 111.683 61.2729C111.905 61.2456 112.1 61.2743 112.269 61.3589C112.441 61.4431 112.575 61.5865 112.671 61.7891C112.724 61.5757 112.818 61.4062 112.953 61.2805C113.092 61.1544 113.265 61.0786 113.472 61.0531C113.784 61.0149 114.041 61.0887 114.244 61.2743C114.451 61.4595 114.579 61.7636 114.627 62.1865L114.822 63.7761L114.378 63.8307L114.203 62.4078C114.169 62.1336 114.114 61.9279 114.037 61.7906C113.963 61.653 113.875 61.5641 113.773 61.524C113.67 61.4803 113.555 61.4661 113.429 61.4816C113.21 61.5085 113.051 61.6165 112.95 61.8056C112.848 61.9911 112.817 62.2413 112.856 62.5563L113.032 63.9959L112.588 64.0505L112.413 62.6276C112.379 62.3534 112.324 62.1476 112.247 62.0104C112.174 61.8727 112.084 61.7841 111.977 61.7445C111.874 61.7007 111.76 61.6866 111.634 61.7021C111.419 61.7284 111.261 61.8362 111.16 62.0254C111.059 62.2109 111.027 62.4611 111.066 62.776L111.243 64.2156L110.798 64.2702ZM115.554 63.6863L115.212 60.9072L115.657 60.8526L115.998 63.6317L115.554 63.6863ZM115.361 60.2345C115.287 60.2436 115.219 60.2237 115.156 60.175C115.094 60.1262 115.058 60.0648 115.049 59.9907C115.04 59.9129 115.059 59.8446 115.109 59.7859C115.157 59.7235 115.219 59.6877 115.293 59.6786C115.371 59.6691 115.439 59.6889 115.498 59.7381C115.56 59.7832 115.595 59.8446 115.605 59.9224C115.614 59.9965 115.594 60.0648 115.545 60.1272C115.5 60.1891 115.439 60.2249 115.361 60.2345ZM116.818 63.5311L116.476 60.752L116.893 60.7008L116.984 61.2087L117.262 63.4765L116.818 63.5311ZM118.769 63.2916L118.594 61.8687L119.039 61.8141L119.213 63.237L118.769 63.2916ZM118.594 61.8687C118.56 61.5944 118.503 61.389 118.422 61.2522C118.342 61.1154 118.242 61.0279 118.125 60.9897C118.007 60.9477 117.878 60.9354 117.737 60.9527C117.492 60.9827 117.312 61.0932 117.196 61.2842C117.084 61.4711 117.047 61.722 117.086 62.0369L116.869 62.0635C116.833 61.7708 116.845 61.5136 116.904 61.2919C116.963 61.0702 117.067 60.8938 117.217 60.7626C117.366 60.6314 117.556 60.5518 117.786 60.5235C118.004 60.4967 118.199 60.518 118.369 60.5873C118.542 60.6525 118.685 60.7742 118.797 60.9522C118.913 61.1298 118.988 61.3726 119.022 61.6807L119.039 61.8141L118.594 61.8687ZM120.898 63.0978C120.694 63.1229 120.513 63.115 120.353 63.0744C120.194 63.0301 120.056 62.9642 119.94 62.8769C119.828 62.7892 119.742 62.6887 119.683 62.5756L120.052 62.3667C120.131 62.4849 120.238 62.5752 120.373 62.6376C120.509 62.6999 120.652 62.7217 120.804 62.7031C120.979 62.6817 121.121 62.6304 121.231 62.5491C121.341 62.4642 121.388 62.3587 121.373 62.2327C121.359 62.1178 121.303 62.0307 121.205 61.9712C121.111 61.9112 120.977 61.8695 120.801 61.846L120.525 61.8065C120.265 61.7707 120.056 61.6948 119.899 61.5786C119.741 61.4588 119.652 61.3137 119.631 61.1432C119.599 60.8802 119.659 60.6659 119.812 60.5004C119.968 60.3308 120.216 60.2251 120.557 60.1833C120.72 60.1632 120.871 60.1691 121.011 60.2009C121.15 60.2327 121.273 60.2872 121.38 60.3643C121.487 60.4377 121.57 60.5309 121.629 60.644L121.261 60.8641C121.198 60.744 121.107 60.663 120.989 60.6211C120.871 60.5792 120.732 60.568 120.573 60.5875C120.402 60.6085 120.274 60.6619 120.186 60.7478C120.099 60.8301 120.063 60.936 120.079 61.0657C120.088 61.1398 120.135 61.2055 120.221 61.2626C120.311 61.3156 120.435 61.3529 120.596 61.3746L120.883 61.4127C121.07 61.4349 121.23 61.4829 121.363 61.5568C121.496 61.6271 121.601 61.7139 121.677 61.8173C121.754 61.9207 121.8 62.0354 121.815 62.1614C121.836 62.3282 121.809 62.4782 121.735 62.6114C121.661 62.7446 121.553 62.8538 121.409 62.9392C121.265 63.0208 121.094 63.0737 120.898 63.0978Z" fill="#083347"/>
</g>
<rect x="83.3143" y="47.2932" width="54.8" height="25.2" rx="6" transform="rotate(-7 83.3143 47.2932)" stroke="#E53935" stroke-width="0.8"/>
</g>
</g>
<defs>
<filter id="filter0_d_1_511" x="-0.113306" y="0.0137695" width="281.091" height="113.921" filterUnits="userSpaceOnUse" color-interpolation-filters="sRGB">
<feFlood flood-opacity="0" result="BackgroundImageFix"/>
<feColorMatrix in="SourceAlpha" type="matrix" values="0 0 0 0 0 0 0 0 0 0 0 0 0 0 0 0 0 0 127 0" result="hardAlpha"/>
<feMorphology radius="1.6" operator="dilate" in="SourceAlpha" result="effect1_dropShadow_1_511"/>
<feOffset dy="4"/>
<feGaussianBlur stdDeviation="4"/>
<feComposite in2="hardAlpha" operator="out"/>
<feColorMatrix type="matrix" values="0 0 0 0 0 0 0 0 0 0 0 0 0 0 0 0 0 0 0.1 0"/>
<feBlend mode="normal" in2="BackgroundImageFix" result="effect1_dropShadow_1_511"/>
<feBlend mode="normal" in="SourceGraphic" in2="effect1_dropShadow_1_511" result="shape"/>
</filter>
<clipPath id="clip0_1_511">
<rect x="9.48669" y="36.8123" width="256" height="64" rx="8" transform="rotate(-7 9.48669 36.8123)" fill="white"/>
</clipPath>
<clipPath id="clip1_1_511">
<rect x="24.5068" y="54.1108" width="55.6" height="26" rx="6.4" transform="rotate(-7 24.5068 54.1108)" fill="white"/>
</clipPath>
<clipPath id="clip2_1_511">
<rect x="82.8685" y="46.9449" width="55.6" height="26" rx="6.4" transform="rotate(-7 82.8685 46.9449)" fill="white"/>
</clipPath>
</defs>
</svg>
