<svg width="287" height="192" viewBox="0 0 287 192" fill="none" xmlns="http://www.w3.org/2000/svg">
<g filter="url(#filter0_d_1_325)">
<rect x="7.65021" y="35.5479" width="256" height="147" rx="8" transform="rotate(-7 7.65021 35.5479)" fill="#FAFCFD"/>
<rect x="8.31886" y="36.0703" width="254.8" height="145.8" rx="7.4" transform="rotate(-7 8.31886 36.0703)" stroke="#BC0A6F" stroke-width="1.2" stroke-dasharray="1.6 1.6"/>
<rect x="8.31886" y="36.0703" width="254.8" height="145.8" rx="7.4" transform="rotate(-7 8.31886 36.0703)" stroke="white" stroke-opacity="0.6" stroke-width="1.2" stroke-dasharray="1.6 1.6"/>
<path d="M111.868 89.0379L123.167 86.1611C124.413 85.8438 125.482 85.0444 126.139 83.9389C126.796 82.8333 126.986 81.5121 126.669 80.2659L124.779 72.8416C124.462 71.5955 123.663 70.5262 122.558 69.8689L112.504 63.8943C111.956 63.5691 111.35 63.3549 110.72 63.2639C110.09 63.173 109.448 63.207 108.831 63.3642L105.544 64.201C104.298 64.5183 103.229 65.3176 102.572 66.4232C101.915 67.5288 101.724 68.85 102.042 70.0962L105.973 85.5354C106.29 86.7816 107.089 87.8507 108.195 88.5076C109.3 89.1644 110.622 89.3552 111.868 89.0379Z" stroke="#5E7078" stroke-width="0.84" stroke-linecap="round" stroke-linejoin="round"/>
<path d="M110.898 63.352L112.832 70.9508C113.014 71.6629 113.47 72.2738 114.102 72.6492C114.734 73.0245 115.489 73.1335 116.201 72.9522L123.802 71.0168" stroke="#5E7078" stroke-width="0.84" stroke-linecap="round" stroke-linejoin="round"/>
<path d="M173.062 82.6526L161.402 82.5947C160.116 82.5884 158.886 82.0714 157.981 81.1576C157.076 80.2437 156.571 79.0079 156.578 77.7219L156.616 70.061C156.622 68.7752 157.138 67.5444 158.051 66.6393L166.362 58.4098C166.814 57.9618 167.351 57.6073 167.94 57.3666C168.53 57.1259 169.161 57.0036 169.797 57.0068L173.189 57.0237C174.475 57.03 175.706 57.547 176.61 58.4608C177.515 59.3747 178.02 60.6105 178.013 61.8965L177.934 77.828C177.928 79.1139 177.411 80.3447 176.497 81.2495C175.583 82.1543 174.348 82.659 173.062 82.6526Z" stroke="#5E7078" stroke-width="0.84" stroke-linecap="round" stroke-linejoin="round"/>
<path d="M167.789 57.495L167.75 65.3361C167.746 66.0709 167.451 66.7742 166.929 67.2912C166.407 67.8082 165.7 68.0967 164.966 68.093L157.122 68.0541" stroke="#5E7078" stroke-width="0.84" stroke-linecap="round" stroke-linejoin="round"/>
<rect x="121.33" y="55.4419" width="35.28" height="38.64" transform="rotate(-7 121.33 55.4419)" fill="#FAFCFD"/>
<path d="M155.727 64.477L157.687 80.4359C157.778 81.4843 157.662 82.5402 157.346 83.5428C157.029 84.5454 156.518 85.4749 155.843 86.2777C155.167 87.0839 154.339 87.748 153.407 88.2323C152.475 88.7165 151.457 89.0114 150.412 89.0999L136.349 90.8266C135.308 91.0033 134.242 90.9716 133.212 90.7334C132.182 90.4951 131.209 90.055 130.349 89.4382C129.491 88.8217 128.764 88.0403 128.209 87.1392C127.654 86.2382 127.283 85.2355 127.116 84.1895L124.767 65.0529C124.675 64.0045 124.791 62.9486 125.108 61.946C125.424 60.9434 125.935 60.0139 126.611 59.2111C127.287 58.405 128.115 57.7408 129.046 57.2565C129.978 56.7723 130.996 56.4775 132.042 56.3889L142.629 55.089C144.244 54.8848 145.878 55.2944 147.21 56.2376L153.317 60.6342C153.964 61.0692 154.513 61.6361 154.929 62.2982C155.344 62.9602 155.616 63.7026 155.727 64.477Z" fill="#BC0A6F"/>
<path d="M155.727 64.477L157.687 80.4359C157.778 81.4843 157.662 82.5402 157.346 83.5428C157.029 84.5454 156.518 85.4749 155.843 86.2777C155.167 87.0839 154.339 87.748 153.407 88.2323C152.475 88.7165 151.457 89.0114 150.412 89.0999L136.349 90.8266C135.308 91.0033 134.242 90.9716 133.212 90.7334C132.182 90.4951 131.209 90.055 130.349 89.4382C129.491 88.8217 128.764 88.0403 128.209 87.1392C127.654 86.2382 127.283 85.2355 127.116 84.1895L124.767 65.0529C124.675 64.0045 124.791 62.9486 125.108 61.946C125.424 60.9434 125.935 60.0139 126.611 59.2111C127.287 58.405 128.115 57.7408 129.046 57.2565C129.978 56.7723 130.996 56.4775 132.042 56.3889L142.629 55.089C144.244 54.8848 145.878 55.2944 147.21 56.2376L153.317 60.6342C153.964 61.0692 154.513 61.6361 154.929 62.2982C155.344 62.9602 155.616 63.7026 155.727 64.477Z" fill="white" fill-opacity="0.6"/>
<path d="M155.727 64.477L157.687 80.4359C157.778 81.4843 157.662 82.5402 157.346 83.5428C157.029 84.5454 156.518 85.4749 155.843 86.2777C155.167 87.0839 154.339 87.748 153.407 88.2323C152.475 88.7165 151.457 89.0114 150.412 89.0999L136.349 90.8266C135.308 91.0033 134.242 90.9716 133.212 90.7334C132.182 90.4951 131.209 90.055 130.349 89.4382C129.491 88.8217 128.764 88.0403 128.209 87.1392C127.654 86.2382 127.283 85.2355 127.116 84.1895L124.767 65.0529C124.675 64.0045 124.791 62.9486 125.108 61.946C125.424 60.9434 125.935 60.0139 126.611 59.2111C127.287 58.405 128.115 57.7408 129.046 57.2565C129.978 56.7723 130.996 56.4775 132.042 56.3889L142.629 55.089C144.244 54.8848 145.878 55.2944 147.21 56.2376L153.317 60.6342C153.964 61.0692 154.513 61.6361 154.929 62.2982C155.344 62.9602 155.616 63.7026 155.727 64.477Z" stroke="black" stroke-width="0.84" stroke-linecap="round" stroke-linejoin="round"/>
<path d="M140.875 69.8755L142.416 82.426L140.875 69.8755Z" fill="white"/>
<path d="M140.875 69.8755L142.416 82.426" stroke="#BC0A6F" stroke-width="0.84" stroke-miterlimit="10" stroke-linecap="round"/>
<path d="M147.278 74.4474L141.734 70.1161C141.614 70.0211 141.477 69.9509 141.329 69.9095C141.182 69.8682 141.027 69.8565 140.876 69.8751C140.724 69.8938 140.577 69.9424 140.444 70.0182C140.311 70.094 140.194 70.1955 140.1 70.3167L135.769 75.8624" stroke="#BC0A6F" stroke-width="0.84" stroke-linecap="round" stroke-linejoin="round"/>
<path d="M143.28 55.0032L144.098 61.6657C144.209 62.568 144.675 63.3909 145.394 63.9514C146.116 64.5124 147.03 64.7647 147.937 64.653L155.579 63.7146" fill="#BC0A6F"/>
<path d="M143.28 55.0032L144.098 61.6657C144.209 62.568 144.675 63.3909 145.394 63.9514C146.116 64.5124 147.03 64.7647 147.937 64.653L155.579 63.7146" fill="white" fill-opacity="0.6"/>
<path d="M143.28 55.0032L144.098 61.6657C144.209 62.568 144.675 63.3909 145.394 63.9514C146.116 64.5124 147.03 64.7647 147.937 64.653L155.579 63.7146" stroke="black" stroke-width="0.84" stroke-linecap="round" stroke-linejoin="round"/>
<path d="M83.5888 121.131L82.4798 112.099L85.2282 111.761C86.0798 111.657 86.8519 111.758 87.5446 112.066C88.2448 112.364 88.8216 112.831 89.2749 113.465C89.7283 114.099 90.0093 114.859 90.1181 115.745C90.2259 116.622 90.1365 117.424 89.85 118.149C89.5636 118.874 89.1173 119.47 88.511 119.937C87.9134 120.403 87.1888 120.689 86.3372 120.793L83.5888 121.131ZM84.562 119.99L86.2136 119.787C86.6695 119.731 87.0805 119.593 87.4464 119.374C87.8113 119.146 88.12 118.85 88.3723 118.487C88.6332 118.123 88.8195 117.721 88.9312 117.279C89.0505 116.828 89.0805 116.361 89.0214 115.88C88.9622 115.398 88.8207 114.957 88.5969 114.557C88.3807 114.147 88.102 113.797 87.7608 113.507C87.4281 113.216 87.0577 113.008 86.6495 112.883C86.2402 112.75 85.8077 112.712 85.3517 112.768L83.7001 112.971L84.562 119.99ZM92.3139 116.51C92.2284 115.813 92.2925 115.234 92.5064 114.771C92.7192 114.299 93.0193 113.935 93.4069 113.678C93.802 113.411 94.2318 113.249 94.6963 113.192L94.8151 114.16C94.4366 114.206 94.079 114.316 93.7421 114.488C93.4128 114.651 93.1538 114.888 92.965 115.199C92.7762 115.51 92.7119 115.911 92.7721 116.402L92.3139 116.51ZM92.1755 120.077L91.3834 113.625L92.4156 113.498L93.2078 119.95L92.1755 120.077ZM100.51 119.053L100.328 118.002L100.04 115.653C99.9773 115.146 99.8702 114.735 99.7182 114.422C99.5652 114.1 99.3577 113.868 99.0957 113.726C98.8338 113.583 98.5092 113.536 98.1221 113.584C97.7694 113.627 97.473 113.737 97.2329 113.915C97.0004 114.084 96.8214 114.333 96.696 114.662L95.7226 114.415C95.8491 114.094 96.0152 113.812 96.2211 113.568C96.4259 113.316 96.6762 113.115 96.9722 112.965C97.2671 112.807 97.6124 112.703 98.0081 112.654C98.6102 112.581 99.1196 112.64 99.5363 112.834C99.9605 113.017 100.3 113.329 100.555 113.769C100.809 114.201 100.973 114.757 101.048 115.438L101.464 118.936L100.51 119.053ZM98.5931 119.446C97.8361 119.539 97.2214 119.44 96.7491 119.148C96.2843 118.847 96.0138 118.387 95.9378 117.768C95.8575 117.114 96.0113 116.589 96.3992 116.192C96.7946 115.785 97.3837 115.534 98.1665 115.438L100.012 115.211L100.118 116.076L98.5049 116.274C97.9027 116.348 97.4848 116.5 97.251 116.729C97.0258 116.958 96.9359 117.257 96.9814 117.627C97.0226 117.962 97.18 118.213 97.4538 118.381C97.7265 118.539 98.0865 118.591 98.5338 118.536C98.9037 118.491 99.2167 118.374 99.473 118.185C99.7282 117.988 99.911 117.734 100.021 117.424C100.139 117.104 100.173 116.741 100.124 116.337L100.562 116.283C100.67 117.161 100.558 117.886 100.227 118.459C99.8947 119.024 99.3501 119.353 98.5931 119.446ZM106.029 121.152C105.617 121.203 105.233 121.206 104.878 121.163C104.533 121.126 104.234 121.071 103.98 120.998C103.736 120.932 103.559 120.871 103.447 120.814L103.731 119.928C103.85 119.975 104.018 120.028 104.235 120.089C104.454 120.158 104.704 120.206 104.987 120.233C105.279 120.266 105.584 120.264 105.902 120.225C106.315 120.174 106.675 120.043 106.98 119.831C107.296 119.626 107.522 119.332 107.658 118.948C107.804 118.572 107.843 118.105 107.774 117.546L107.056 111.701L108.088 111.574L108.805 117.406C108.895 118.146 108.834 118.782 108.62 119.315C108.406 119.848 108.073 120.268 107.622 120.577C107.171 120.885 106.64 121.077 106.029 121.152ZM105.648 118.37C105.072 118.441 104.548 118.365 104.075 118.144C103.603 117.923 103.212 117.582 102.902 117.122C102.6 116.653 102.41 116.1 102.332 115.464C102.251 114.81 102.301 114.223 102.482 113.703C102.67 113.173 102.967 112.744 103.372 112.415C103.777 112.086 104.267 111.886 104.844 111.815C105.386 111.749 105.876 111.828 106.314 112.054C106.752 112.279 107.113 112.628 107.398 113.099C107.691 113.561 107.877 114.119 107.957 114.773C108.037 115.418 107.99 116 107.818 116.519C107.655 117.037 107.388 117.458 107.017 117.783C106.647 118.108 106.19 118.303 105.648 118.37ZM105.784 117.45C106.163 117.403 106.486 117.259 106.753 117.016C107.02 116.774 107.214 116.466 107.334 116.094C107.453 115.712 107.483 115.285 107.425 114.812C107.369 114.356 107.233 113.962 107.018 113.631C106.81 113.289 106.548 113.038 106.231 112.876C105.922 112.704 105.574 112.642 105.187 112.69C104.783 112.74 104.434 112.887 104.141 113.133C103.856 113.369 103.645 113.678 103.508 114.062C103.38 114.435 103.343 114.85 103.399 115.306C103.457 115.779 103.599 116.185 103.824 116.525C104.048 116.855 104.327 117.105 104.662 117.273C105.006 117.44 105.38 117.499 105.784 117.45ZM116.745 117.217C116.117 117.294 115.54 117.221 115.015 116.997C114.497 116.764 114.07 116.41 113.732 115.937C113.394 115.463 113.185 114.895 113.104 114.233C113.022 113.57 113.084 112.969 113.288 112.429C113.501 111.887 113.831 111.445 114.278 111.102C114.732 110.749 115.269 110.535 115.889 110.459C116.525 110.381 117.102 110.458 117.62 110.692C118.145 110.915 118.572 111.265 118.901 111.739C119.239 112.213 119.448 112.781 119.529 113.444C119.611 114.106 119.545 114.708 119.332 115.249C119.128 115.789 118.803 116.235 118.357 116.587C117.91 116.93 117.372 117.14 116.745 117.217ZM116.627 116.262C117.057 116.209 117.419 116.06 117.712 115.815C118.005 115.569 118.219 115.255 118.356 114.871C118.501 114.487 118.543 114.054 118.484 113.572C118.425 113.09 118.279 112.68 118.045 112.342C117.82 112.003 117.531 111.75 117.179 111.584C116.827 111.418 116.436 111.361 116.006 111.414C115.584 111.466 115.223 111.615 114.921 111.861C114.628 112.107 114.409 112.422 114.264 112.806C114.128 113.19 114.09 113.623 114.149 114.104C114.207 114.577 114.349 114.988 114.575 115.335C114.809 115.674 115.102 115.926 115.454 116.092C115.815 116.257 116.206 116.314 116.627 116.262ZM121.497 112.927C121.412 112.23 121.476 111.65 121.69 111.187C121.902 110.716 122.203 110.352 122.59 110.095C122.985 109.828 123.415 109.666 123.879 109.609L123.998 110.577C123.62 110.623 123.262 110.732 122.925 110.905C122.596 111.067 122.337 111.304 122.148 111.616C121.959 111.927 121.895 112.328 121.955 112.818L121.497 112.927ZM121.359 116.493L120.567 110.042L121.599 109.915L122.391 116.367L121.359 116.493ZM129.203 115.53L128.094 106.498L130.843 106.161C131.694 106.056 132.466 106.158 133.159 106.466C133.859 106.764 134.436 107.23 134.889 107.864C135.343 108.498 135.624 109.258 135.733 110.144C135.84 111.022 135.751 111.823 135.465 112.548C135.178 113.273 134.732 113.869 134.126 114.336C133.528 114.803 132.803 115.088 131.952 115.193L129.203 115.53ZM130.176 114.389L131.828 114.186C132.284 114.13 132.695 113.993 133.061 113.773C133.426 113.545 133.734 113.249 133.987 112.887C134.248 112.523 134.434 112.12 134.546 111.678C134.665 111.227 134.695 110.761 134.636 110.279C134.577 109.797 134.435 109.356 134.211 108.956C133.995 108.546 133.716 108.196 133.375 107.906C133.043 107.615 132.672 107.407 132.264 107.283C131.855 107.15 131.422 107.111 130.966 107.167L129.315 107.37L130.176 114.389ZM137.928 110.909C137.843 110.213 137.907 109.633 138.121 109.17C138.334 108.699 138.634 108.334 139.021 108.077C139.416 107.81 139.846 107.648 140.311 107.591L140.43 108.559C140.051 108.606 139.693 108.715 139.357 108.887C139.027 109.05 138.768 109.287 138.579 109.598C138.391 109.91 138.326 110.31 138.387 110.801L137.928 110.909ZM137.79 114.476L136.998 108.024L138.03 107.898L138.822 114.349L137.79 114.476ZM145.02 113.745C144.392 113.822 143.816 113.749 143.291 113.525C142.773 113.292 142.346 112.939 142.008 112.465C141.67 111.991 141.461 111.423 141.38 110.761C141.298 110.098 141.36 109.497 141.564 108.957C141.777 108.415 142.107 107.973 142.554 107.63C143.008 107.278 143.545 107.063 144.164 106.987C144.801 106.909 145.378 106.987 145.896 107.22C146.421 107.444 146.848 107.793 147.177 108.268C147.515 108.741 147.724 109.309 147.805 109.972C147.887 110.634 147.821 111.236 147.608 111.777C147.404 112.318 147.078 112.763 146.633 113.115C146.186 113.458 145.648 113.668 145.02 113.745ZM144.903 112.79C145.333 112.738 145.695 112.588 145.988 112.343C146.281 112.097 146.495 111.783 146.632 111.399C146.776 111.015 146.819 110.582 146.76 110.1C146.701 109.618 146.555 109.208 146.321 108.87C146.096 108.531 145.807 108.279 145.455 108.112C145.103 107.946 144.712 107.889 144.282 107.942C143.86 107.994 143.499 108.143 143.197 108.39C142.904 108.635 142.685 108.95 142.54 109.335C142.404 109.718 142.366 110.151 142.425 110.632C142.483 111.105 142.625 111.516 142.851 111.864C143.085 112.202 143.377 112.454 143.73 112.62C144.091 112.785 144.482 112.842 144.903 112.79ZM150.016 115.594L148.907 106.562L149.875 106.443L150.085 107.622L151.048 115.467L150.016 115.594ZM152.931 112.774C152.389 112.84 151.894 112.757 151.447 112.524C151.007 112.29 150.645 111.933 150.359 111.453C150.072 110.964 149.888 110.388 149.806 109.726C149.724 109.055 149.763 108.452 149.925 107.917C150.086 107.382 150.351 106.948 150.721 106.614C151.099 106.28 151.559 106.079 152.101 106.013C152.677 105.942 153.202 106.022 153.676 106.252C154.149 106.482 154.538 106.836 154.841 107.314C155.153 107.79 155.35 108.364 155.432 109.035C155.513 109.698 155.461 110.302 155.275 110.849C155.096 111.386 154.805 111.823 154.401 112.161C153.997 112.499 153.507 112.703 152.931 112.774ZM152.583 111.861C152.987 111.811 153.332 111.664 153.616 111.419C153.909 111.174 154.123 110.855 154.258 110.463C154.402 110.07 154.445 109.637 154.387 109.164C154.329 108.69 154.187 108.28 153.961 107.932C153.743 107.584 153.463 107.326 153.119 107.158C152.775 106.991 152.401 106.932 151.997 106.982C151.619 107.028 151.292 107.173 151.016 107.416C150.749 107.659 150.552 107.975 150.425 108.366C150.307 108.756 150.277 109.188 150.335 109.661C150.393 110.134 150.527 110.546 150.736 110.895C150.953 111.244 151.221 111.504 151.539 111.674C151.856 111.845 152.205 111.907 152.583 111.861Z" fill="#083347"/>
<path d="M166.872 110.905L162.24 102.305L163.737 102.122L168.459 110.71L166.872 110.905ZM159.659 111.791L162.15 102.317L163.66 102.131L161.246 111.596L159.659 111.791ZM161.077 109.364L160.914 108.035L166.32 107.371L166.483 108.7L161.077 109.364ZM169.365 110.599L168.573 104.147L169.928 103.981L170.164 105.157L170.81 110.422L169.365 110.599ZM173.739 110.062L173.333 106.759L174.779 106.581L175.184 109.884L173.739 110.062ZM173.333 106.759C173.27 106.243 173.161 105.854 173.007 105.594C172.86 105.324 172.673 105.146 172.444 105.06C172.224 104.974 171.972 104.948 171.688 104.983C171.205 105.034 170.85 105.239 170.624 105.598C170.397 105.958 170.322 106.443 170.397 107.054L169.855 107.12C169.771 106.441 169.799 105.848 169.938 105.342C170.075 104.827 170.314 104.423 170.653 104.128C170.991 103.824 171.414 103.641 171.921 103.579C172.438 103.516 172.889 103.565 173.276 103.727C173.671 103.888 173.99 104.176 174.233 104.592C174.484 104.998 174.652 105.549 174.737 106.246L174.779 106.581L173.333 106.759ZM177.807 107.729L176.808 106.843L179.714 102.779L181.456 102.566L177.807 107.729ZM176.648 109.705L175.539 100.673L176.984 100.495L178.093 109.527L176.648 109.705ZM180.751 109.201L178.07 106.138L178.888 105.016L182.467 108.99L180.751 109.201ZM183.404 108.875L182.612 102.424L184.044 102.248L184.836 108.699L183.404 108.875ZM183.184 101.109C182.952 101.138 182.74 101.081 182.548 100.938C182.363 100.786 182.256 100.594 182.228 100.362C182.199 100.13 182.257 99.9219 182.4 99.7384C182.552 99.5538 182.744 99.4473 182.977 99.4188C183.209 99.3903 183.417 99.4477 183.6 99.5911C183.792 99.7334 183.903 99.9207 183.931 100.153C183.96 100.385 183.898 100.598 183.748 100.791C183.604 100.975 183.416 101.081 183.184 101.109ZM189.923 108.075L188.814 99.0426L194.427 98.3534L194.595 99.7211L190.479 100.227L190.789 102.756L194.312 102.323L194.48 103.691L190.957 104.123L191.42 107.891L189.923 108.075ZM196.837 107.226L196.044 100.774L197.477 100.598L198.269 107.05L196.837 107.226ZM196.616 99.4598C196.384 99.4883 196.172 99.4314 195.98 99.2891C195.795 99.1371 195.689 98.945 195.66 98.7128C195.632 98.4805 195.689 98.2726 195.833 98.0891C195.985 97.9045 196.177 97.798 196.409 97.7695C196.641 97.741 196.849 97.7984 197.033 97.9418C197.225 98.0841 197.335 98.2714 197.363 98.5036C197.392 98.7359 197.331 98.9486 197.18 99.1418C197.036 99.3253 196.849 99.4313 196.616 99.4598ZM199.972 106.841L198.863 97.8087L200.308 97.6313L201.417 106.663L199.972 106.841ZM205.918 106.268C205.29 106.345 204.713 106.272 204.188 106.048C203.67 105.815 203.239 105.462 202.892 104.989C202.555 104.515 202.345 103.947 202.264 103.285C202.183 102.623 202.253 102.02 202.474 101.478C202.696 100.936 203.034 100.492 203.49 100.148C203.953 99.7945 204.503 99.5786 205.139 99.5004C205.716 99.4297 206.254 99.5163 206.756 99.7603C207.256 99.9958 207.674 100.377 208.01 100.903C208.353 101.428 208.573 102.078 208.668 102.852L203.597 103.475L203.768 103.271C203.817 103.666 203.945 104 204.153 104.271C204.36 104.534 204.615 104.725 204.918 104.845C205.221 104.965 205.544 105.004 205.888 104.962C206.284 104.913 206.6 104.787 206.837 104.583C207.073 104.371 207.247 104.114 207.358 103.812L208.702 104.197C208.564 104.563 208.368 104.893 208.116 105.186C207.873 105.478 207.566 105.716 207.196 105.902C206.834 106.086 206.408 106.208 205.918 106.268ZM203.767 102.511L203.538 102.356L207.177 101.909L207.006 102.113C206.962 101.761 206.849 101.482 206.667 101.277C206.484 101.064 206.265 100.916 206.01 100.834C205.763 100.742 205.511 100.712 205.253 100.744C204.994 100.776 204.744 100.867 204.501 101.02C204.256 101.163 204.062 101.362 203.919 101.615C203.774 101.86 203.724 102.158 203.767 102.511Z" fill="#BC0A6F"/>
<path d="M94.5048 137.402L93.7456 131.218L91.5322 131.49L91.4384 130.726L96.6989 130.08L96.7927 130.844L94.5793 131.116L95.3386 137.299L94.5048 137.402ZM98.3535 136.929L97.5004 129.981L98.2945 129.884L99.1475 136.832L98.3535 136.929ZM101.847 136.5L101.535 133.959L102.329 133.862L102.641 136.403L101.847 136.5ZM101.535 133.959C101.475 133.47 101.37 133.103 101.219 132.86C101.075 132.615 100.898 132.459 100.688 132.391C100.477 132.316 100.246 132.294 99.9946 132.325C99.5579 132.379 99.2362 132.576 99.0296 132.917C98.8287 133.251 98.7628 133.699 98.8319 134.261L98.4448 134.309C98.3806 133.786 98.4015 133.327 98.5074 132.931C98.6199 132.534 98.8095 132.219 99.0763 131.984C99.343 131.75 99.6815 131.608 100.092 131.557C100.476 131.51 100.823 131.548 101.133 131.671C101.443 131.788 101.698 132.005 101.899 132.323C102.105 132.64 102.239 133.074 102.3 133.624L102.329 133.862L101.535 133.959ZM106.076 136.102C105.593 136.161 105.153 136.104 104.756 135.932C104.358 135.752 104.029 135.48 103.769 135.116C103.516 134.751 103.358 134.313 103.296 133.804C103.233 133.294 103.28 132.832 103.438 132.416C103.601 132 103.852 131.66 104.189 131.397C104.532 131.126 104.942 130.962 105.418 130.903C105.881 130.846 106.296 130.913 106.662 131.103C107.027 131.287 107.327 131.572 107.563 131.96C107.798 132.347 107.95 132.819 108.019 133.375L103.919 133.878L104.097 133.685C104.146 134.082 104.257 134.414 104.431 134.682C104.612 134.948 104.84 135.142 105.117 135.263C105.393 135.376 105.696 135.413 106.027 135.372C106.378 135.329 106.662 135.211 106.88 135.016C107.105 134.82 107.266 134.579 107.365 134.291L108.093 134.555C107.999 134.828 107.858 135.074 107.67 135.292C107.488 135.509 107.261 135.688 106.99 135.829C106.725 135.969 106.421 136.06 106.076 136.102ZM104.105 133.342L103.877 133.208L107.302 132.788L107.114 132.982C107.075 132.665 106.978 132.398 106.824 132.182C106.67 131.965 106.479 131.807 106.252 131.708C106.025 131.608 105.772 131.575 105.495 131.609C105.223 131.643 104.973 131.737 104.744 131.893C104.521 132.048 104.348 132.251 104.224 132.501C104.106 132.744 104.066 133.024 104.105 133.342ZM111.759 135.283L111.149 130.321L111.894 130.229L112.019 130.919C112.138 130.636 112.309 130.41 112.53 130.242C112.751 130.073 113.021 129.97 113.338 129.931C113.735 129.882 114.084 129.933 114.385 130.084C114.692 130.235 114.932 130.491 115.104 130.853C115.198 130.472 115.366 130.169 115.607 129.945C115.854 129.719 116.164 129.584 116.534 129.538C117.09 129.47 117.549 129.602 117.913 129.933C118.282 130.264 118.51 130.807 118.596 131.562L118.945 134.401L118.151 134.498L117.839 131.958C117.779 131.468 117.68 131.101 117.542 130.855C117.411 130.61 117.254 130.451 117.071 130.379C116.886 130.301 116.682 130.276 116.457 130.304C116.066 130.352 115.781 130.544 115.601 130.882C115.42 131.213 115.364 131.66 115.433 132.223L115.749 134.793L114.955 134.891L114.643 132.35C114.583 131.86 114.484 131.493 114.346 131.248C114.215 131.002 114.055 130.844 113.865 130.773C113.681 130.695 113.476 130.67 113.251 130.697C112.867 130.744 112.585 130.937 112.405 131.275C112.224 131.606 112.168 132.053 112.237 132.615L112.553 135.186L111.759 135.283ZM123.258 133.871L123.119 133.062L122.897 131.256C122.849 130.865 122.766 130.55 122.65 130.309C122.532 130.061 122.372 129.883 122.171 129.773C121.969 129.664 121.72 129.627 121.422 129.664C121.15 129.697 120.922 129.782 120.738 129.919C120.559 130.048 120.421 130.24 120.325 130.494L119.576 130.303C119.673 130.056 119.801 129.839 119.959 129.652C120.117 129.458 120.31 129.303 120.537 129.188C120.764 129.066 121.03 128.987 121.334 128.949C121.797 128.892 122.189 128.938 122.51 129.087C122.836 129.228 123.097 129.468 123.293 129.807C123.488 130.139 123.615 130.567 123.672 131.09L123.993 133.781L123.258 133.871ZM121.784 134.173C121.202 134.245 120.729 134.168 120.366 133.944C120.008 133.713 119.8 133.359 119.741 132.883C119.68 132.38 119.798 131.976 120.096 131.67C120.401 131.358 120.854 131.164 121.456 131.09L122.875 130.916L122.957 131.581L121.716 131.733C121.253 131.79 120.931 131.907 120.752 132.083C120.578 132.259 120.509 132.489 120.544 132.774C120.576 133.032 120.697 133.225 120.908 133.354C121.117 133.476 121.394 133.516 121.738 133.474C122.023 133.439 122.264 133.349 122.461 133.204C122.657 133.052 122.798 132.857 122.883 132.618C122.973 132.372 123 132.093 122.961 131.782L123.299 131.74C123.382 132.415 123.296 132.973 123.041 133.414C122.785 133.849 122.366 134.102 121.784 134.173ZM124.665 133.699L126.34 130.601L127.51 128.312L128.453 128.196L126.896 131.107L125.628 133.58L124.665 133.699ZM128.229 133.261L126.42 131.166L124.185 128.72L125.128 128.604L126.827 130.542L129.181 133.144L128.229 133.261ZM132.92 132.685L132.241 127.157C132.178 126.64 132.249 126.239 132.456 125.951C132.668 125.657 133.023 125.479 133.519 125.418C133.651 125.402 133.803 125.406 133.974 125.432C134.145 125.458 134.329 125.503 134.525 125.566L134.304 126.228C134.144 126.187 134.009 126.157 133.899 126.137C133.789 126.117 133.698 126.111 133.625 126.12C133.394 126.149 133.228 126.246 133.127 126.413C133.033 126.572 133.004 126.808 133.043 127.119L133.714 132.587L132.92 132.685ZM131.482 128.519L131.398 127.834L134.544 127.448L134.628 128.133L131.482 128.519ZM136.137 132.29L135.528 127.327L136.322 127.23L136.931 132.192L136.137 132.29ZM135.794 126.126C135.661 126.142 135.539 126.107 135.428 126.02C135.316 125.933 135.253 125.823 135.236 125.691C135.219 125.552 135.255 125.43 135.343 125.325C135.43 125.213 135.539 125.15 135.672 125.133C135.811 125.116 135.933 125.152 136.037 125.24C136.148 125.32 136.212 125.43 136.229 125.569C136.245 125.701 136.21 125.823 136.123 125.934C136.042 126.045 135.933 126.109 135.794 126.126ZM138.395 132.013L137.542 125.065L138.336 124.967L139.189 131.915L138.395 132.013ZM142.764 131.597C142.281 131.657 141.841 131.6 141.443 131.427C141.045 131.247 140.716 130.975 140.456 130.611C140.203 130.246 140.046 129.809 139.983 129.299C139.92 128.789 139.968 128.327 140.125 127.911C140.289 127.495 140.539 127.155 140.876 126.892C141.219 126.622 141.629 126.457 142.105 126.399C142.569 126.342 142.983 126.408 143.349 126.599C143.714 126.782 144.014 127.068 144.25 127.455C144.486 127.843 144.638 128.314 144.706 128.87L140.607 129.374L140.785 129.18C140.833 129.577 140.945 129.91 141.118 130.177C141.299 130.444 141.528 130.637 141.804 130.758C142.08 130.872 142.384 130.908 142.715 130.868C143.065 130.825 143.35 130.706 143.567 130.511C143.792 130.316 143.954 130.074 144.053 129.787L144.78 130.05C144.686 130.323 144.545 130.569 144.357 130.787C144.175 131.004 143.949 131.183 143.677 131.324C143.412 131.464 143.108 131.555 142.764 131.597ZM140.793 128.837L140.565 128.704L143.989 128.283L143.801 128.478C143.762 128.16 143.666 127.893 143.512 127.677C143.357 127.461 143.167 127.303 142.94 127.203C142.712 127.103 142.46 127.071 142.182 127.105C141.911 127.138 141.66 127.233 141.431 127.388C141.208 127.543 141.035 127.746 140.911 127.996C140.793 128.239 140.754 128.519 140.793 128.837ZM150.198 130.684C149.834 130.729 149.51 130.715 149.225 130.643C148.94 130.563 148.694 130.446 148.487 130.29C148.286 130.133 148.133 129.954 148.028 129.752L148.687 129.379C148.827 129.59 149.018 129.751 149.261 129.863C149.503 129.974 149.759 130.013 150.031 129.98C150.342 129.941 150.596 129.85 150.793 129.705C150.989 129.553 151.073 129.365 151.046 129.14C151.021 128.934 150.921 128.779 150.747 128.673C150.579 128.566 150.338 128.491 150.024 128.449L149.532 128.378C149.067 128.315 148.694 128.179 148.414 127.972C148.132 127.758 147.973 127.499 147.935 127.194C147.878 126.724 147.985 126.342 148.258 126.046C148.536 125.743 148.98 125.555 149.589 125.48C149.88 125.444 150.15 125.455 150.399 125.511C150.647 125.568 150.868 125.665 151.059 125.803C151.25 125.934 151.398 126.101 151.503 126.303L150.846 126.696C150.733 126.481 150.571 126.337 150.36 126.262C150.149 126.187 149.902 126.167 149.617 126.202C149.313 126.239 149.083 126.335 148.927 126.488C148.77 126.635 148.706 126.824 148.735 127.056C148.751 127.188 148.836 127.305 148.989 127.407C149.149 127.502 149.372 127.569 149.659 127.607L150.171 127.675C150.505 127.715 150.791 127.801 151.028 127.933C151.266 128.058 151.452 128.213 151.589 128.398C151.726 128.583 151.808 128.787 151.836 129.012C151.873 129.31 151.825 129.578 151.693 129.816C151.561 130.054 151.367 130.249 151.11 130.401C150.852 130.547 150.548 130.641 150.198 130.684ZM153.119 130.205L152.51 125.242L153.304 125.145L153.913 130.107L153.119 130.205ZM152.775 124.041C152.643 124.057 152.521 124.022 152.41 123.935C152.298 123.848 152.234 123.738 152.218 123.605C152.201 123.467 152.237 123.345 152.324 123.24C152.412 123.128 152.521 123.065 152.654 123.048C152.792 123.031 152.914 123.067 153.019 123.154C153.13 123.235 153.194 123.345 153.211 123.484C153.227 123.616 153.192 123.738 153.105 123.849C153.024 123.96 152.914 124.024 152.775 124.041ZM155.128 129.958L155.05 129.323L157.532 125.331L154.604 125.69L154.519 124.995L158.479 124.509L158.555 125.125L156.065 129.138L159.023 128.775L159.108 129.469L155.128 129.958ZM162.44 129.181C161.957 129.241 161.517 129.184 161.12 129.011C160.721 128.831 160.393 128.56 160.133 128.195C159.88 127.83 159.722 127.393 159.659 126.883C159.597 126.374 159.644 125.911 159.801 125.495C159.965 125.079 160.216 124.739 160.553 124.476C160.896 124.206 161.305 124.041 161.782 123.983C162.245 123.926 162.66 123.993 163.025 124.183C163.391 124.366 163.691 124.652 163.927 125.039C164.162 125.427 164.314 125.898 164.382 126.454L160.283 126.958L160.461 126.764C160.51 127.161 160.621 127.494 160.795 127.761C160.975 128.028 161.204 128.221 161.481 128.342C161.757 128.456 162.06 128.492 162.391 128.452C162.742 128.409 163.026 128.29 163.244 128.095C163.468 127.9 163.63 127.658 163.729 127.371L164.457 127.634C164.363 127.907 164.222 128.153 164.033 128.371C163.852 128.588 163.625 128.767 163.354 128.908C163.089 129.048 162.784 129.139 162.44 129.181ZM160.469 126.421L160.241 126.288L163.666 125.867L163.478 126.062C163.439 125.744 163.342 125.477 163.188 125.261C163.034 125.045 162.843 124.887 162.616 124.787C162.389 124.687 162.136 124.655 161.858 124.689C161.587 124.722 161.337 124.817 161.107 124.972C160.885 125.127 160.711 125.33 160.588 125.58C160.47 125.823 160.43 126.103 160.469 126.421ZM168.172 128.357L167.563 123.394L168.357 123.296L168.966 128.259L168.172 128.357ZM167.828 122.193C167.696 122.209 167.574 122.173 167.463 122.086C167.351 121.999 167.287 121.89 167.271 121.757C167.254 121.618 167.29 121.496 167.377 121.392C167.464 121.28 167.574 121.216 167.707 121.2C167.845 121.183 167.967 121.218 168.072 121.306C168.183 121.387 168.247 121.496 168.264 121.635C168.28 121.768 168.245 121.89 168.157 122.001C168.077 122.112 167.967 122.175 167.828 122.193ZM172.181 127.985C171.817 128.03 171.493 128.016 171.209 127.943C170.924 127.864 170.677 127.747 170.47 127.591C170.27 127.434 170.117 127.255 170.011 127.053L170.671 126.68C170.811 126.891 171.002 127.052 171.244 127.163C171.486 127.275 171.743 127.314 172.014 127.28C172.325 127.242 172.579 127.151 172.776 127.005C172.972 126.854 173.057 126.665 173.029 126.44C173.004 126.235 172.904 126.08 172.73 125.973C172.562 125.866 172.321 125.792 172.007 125.75L171.515 125.679C171.05 125.615 170.678 125.48 170.397 125.272C170.116 125.058 169.956 124.799 169.919 124.495C169.861 124.025 169.969 123.643 170.241 123.347C170.52 123.044 170.963 122.855 171.572 122.781C171.863 122.745 172.133 122.755 172.382 122.812C172.631 122.869 172.851 122.966 173.043 123.104C173.233 123.235 173.381 123.401 173.487 123.603L172.83 123.996C172.716 123.782 172.554 123.637 172.343 123.563C172.133 123.488 171.885 123.468 171.6 123.503C171.296 123.54 171.066 123.635 170.91 123.789C170.754 123.936 170.689 124.125 170.718 124.357C170.734 124.489 170.819 124.606 170.973 124.708C171.132 124.803 171.355 124.869 171.642 124.908L172.154 124.976C172.488 125.016 172.774 125.101 173.012 125.233C173.249 125.359 173.436 125.514 173.573 125.699C173.71 125.883 173.792 126.088 173.819 126.313C173.856 126.611 173.808 126.879 173.676 127.117C173.544 127.354 173.35 127.55 173.093 127.702C172.836 127.848 172.532 127.942 172.181 127.985ZM178.964 127.031L178.166 120.53L178.181 120.075L178.935 119.982L179.788 126.93L178.964 127.031ZM176.772 122.062L176.678 121.297C176.818 121.287 176.978 121.22 177.158 121.097C177.337 120.975 177.52 120.821 177.706 120.637C177.891 120.453 178.05 120.266 178.181 120.075L178.766 120.578C178.576 120.836 178.374 121.072 178.158 121.287C177.943 121.501 177.719 121.68 177.488 121.823C177.257 121.958 177.018 122.038 176.772 122.062ZM184.101 126.522C183.572 126.587 183.083 126.492 182.636 126.238C182.187 125.977 181.814 125.593 181.517 125.086C181.219 124.572 181.027 123.964 180.941 123.263C180.854 122.561 180.894 121.928 181.06 121.364C181.225 120.793 181.491 120.33 181.857 119.976C182.229 119.615 182.683 119.401 183.219 119.336C183.755 119.27 184.244 119.368 184.686 119.629C185.133 119.883 185.506 120.267 185.804 120.781C186.108 121.288 186.303 121.892 186.39 122.593C186.476 123.295 186.436 123.931 186.271 124.502C186.106 125.067 185.837 125.529 185.465 125.891C185.092 126.246 184.637 126.456 184.101 126.522ZM184.009 125.767C184.379 125.722 184.692 125.559 184.946 125.279C185.207 124.999 185.391 124.637 185.498 124.194C185.611 123.75 185.634 123.25 185.566 122.695C185.498 122.139 185.355 121.659 185.137 121.256C184.926 120.846 184.66 120.539 184.339 120.337C184.025 120.127 183.682 120.044 183.312 120.09C182.941 120.135 182.628 120.298 182.374 120.578C182.119 120.851 181.935 121.213 181.822 121.663C181.715 122.106 181.696 122.606 181.764 123.161C181.833 123.717 181.972 124.197 182.183 124.601C182.4 125.004 182.666 125.311 182.981 125.521C183.302 125.73 183.645 125.812 184.009 125.767ZM188.192 125.898L187.339 118.951L188.212 118.843L191.051 122.102L193.016 118.254L193.88 118.147L194.733 125.095L193.899 125.198L193.212 119.6L191.225 123.521L188.351 120.217L189.036 125.795L188.192 125.898ZM196.586 124.868L195.733 117.92L197.926 117.651C198.403 117.592 198.819 117.615 199.174 117.719C199.529 117.823 199.817 118.006 200.037 118.268C200.257 118.523 200.391 118.853 200.441 119.256C200.482 119.594 200.443 119.901 200.322 120.177C200.201 120.448 200.011 120.679 199.753 120.872C200.117 120.995 200.409 121.184 200.628 121.44C200.854 121.694 200.991 122.013 201.038 122.397C201.088 122.8 201.041 123.155 200.897 123.462C200.752 123.762 200.524 124.008 200.212 124.201C199.905 124.386 199.524 124.507 199.067 124.563L196.586 124.868ZM197.327 124.011L198.935 123.814C199.372 123.76 199.7 123.616 199.92 123.38C200.145 123.138 200.235 122.835 200.191 122.471C200.143 122.08 199.963 121.793 199.652 121.61C199.34 121.42 198.929 121.356 198.419 121.419L197.03 121.589L197.327 124.011ZM196.941 120.865L198.509 120.672C198.893 120.625 199.181 120.486 199.374 120.254C199.568 120.022 199.642 119.724 199.597 119.36C199.551 118.983 199.387 118.711 199.104 118.544C198.827 118.37 198.458 118.311 197.994 118.368L196.654 118.532L196.941 120.865ZM202.78 124.248C202.628 124.267 202.489 124.23 202.363 124.138C202.244 124.039 202.175 123.916 202.157 123.771C202.138 123.618 202.176 123.483 202.268 123.364C202.367 123.238 202.493 123.165 202.645 123.147C202.797 123.128 202.933 123.168 203.053 123.268C203.171 123.361 203.24 123.483 203.259 123.635C203.277 123.781 203.24 123.916 203.148 124.042C203.055 124.161 202.932 124.23 202.78 124.248Z" fill="#5E7078"/>
</g>
<defs>
<filter id="filter0_d_1_325" x="-0.0297927" y="-0.130635" width="287.367" height="192.463" filterUnits="userSpaceOnUse" color-interpolation-filters="sRGB">
<feFlood flood-opacity="0" result="BackgroundImageFix"/>
<feColorMatrix in="SourceAlpha" type="matrix" values="0 0 0 0 0 0 0 0 0 0 0 0 0 0 0 0 0 0 127 0" result="hardAlpha"/>
<feMorphology radius="1.28" operator="dilate" in="SourceAlpha" result="effect1_dropShadow_1_325"/>
<feOffset dy="3.2"/>
<feGaussianBlur stdDeviation="3.2"/>
<feComposite in2="hardAlpha" operator="out"/>
<feColorMatrix type="matrix" values="0 0 0 0 0 0 0 0 0 0 0 0 0 0 0 0 0 0 0.1 0"/>
<feBlend mode="normal" in2="BackgroundImageFix" result="effect1_dropShadow_1_325"/>
<feBlend mode="normal" in="SourceGraphic" in2="effect1_dropShadow_1_325" result="shape"/>
</filter>
</defs>
</svg>
